<svg xmlns="http://www.w3.org/2000/svg" width="140" height="140" viewBox="0 0 140 140">
  <path d="M66.3114355,36.3125 L53.8119868,36.3125 C53.7976195,40.6460514 53.4846965,44.8569396 52.9065573,48.8125 L63.4806466,48.8125 C65.299313,44.9177402 66.2741906,40.6568078 66.3114355,36.3125 Z M71.2702896,34.272394 C71.2983565,34.8463223 71.3124664,35.4216671 71.3124999,35.9979415 C71.3237877,43.1049235 69.1812528,50.0361809 65.1861783,55.8832971 L71.0518333,67.7010206 C71.9834776,69.5780344 70.3311024,71.6995381 68.2831166,71.2558079 L51.6555133,67.6531605 C43.9347968,71.4772742 35.4527807,72.215721 27.6463759,70.3127141 C27.5408154,70.2935461 27.4364902,70.267627 27.3341029,70.2350897 C18.0048471,67.8711217 9.67256926,61.7253695 4.8071418,52.5613808 C4.77518657,52.5060737 4.74528864,52.4494288 4.71755261,52.3915506 C-4.31436287,35.1591687 2.29693926,13.8520414 19.5148138,4.76526505 C27.4637235,0.570208061 36.2866436,-0.288904609 44.3806837,1.69235254 C44.4683317,1.70926072 44.5550829,1.73083449 44.6405327,1.75699732 C54.0044639,4.12404972 62.3659732,10.3004029 67.228581,19.5142065 C69.4478967,23.7166301 70.7899499,28.3130626 71.1875682,33.0299171 C71.2686378,33.2760969 71.3125,33.5391761 71.3125,33.8125 C71.3125,33.9696039 71.2980086,34.1233232 71.2702896,34.272394 Z M65.9483657,31.3125 C65.4328652,28.0159611 64.3750412,24.8178403 62.8069317,21.8485195 C62.2478796,20.7892121 61.6349549,19.7766751 60.9733057,18.8125 L52.1378212,18.8125 C52.9416469,22.6992498 53.4731407,26.9154212 53.6949744,31.3125 L65.9483657,31.3125 Z M56.6678855,13.8125 C54.4012858,11.7005213 51.8445755,9.97239381 49.1027786,8.66058447 C49.7659411,10.2602867 50.3668267,11.9842815 50.9003911,13.8125 L56.6678855,13.8125 Z M42.362601,6.35836227 C38.2277037,5.46799295 33.8933315,5.43536423 29.6436165,6.34831247 C28.3789193,8.39135445 27.2614228,10.9189522 26.3267763,13.8125 L45.6732237,13.8125 C44.7401092,10.9236948 43.6247434,8.39964111 42.362601,6.35836227 Z M22.898033,8.65862685 C22.5463657,8.82742084 22.1964671,9.00360474 21.8485195,9.18723495 C19.4233286,10.4671355 17.2432726,12.0294914 15.3274541,13.8125 L21.0996089,13.8125 C21.633391,11.9835357 22.2345491,10.2588802 22.898033,8.65862685 Z M11.01764,18.8125 C8.44096261,22.5650956 6.74806596,26.8469671 6.04577715,31.3125 L18.3050256,31.3125 C18.5268593,26.9154212 19.0583531,22.6992498 19.8621788,18.8125 L11.01764,18.8125 Z M5.67834774,36.3125 C5.71825764,40.5221814 6.6383167,44.7798471 8.52290658,48.8125 L19.0934427,48.8125 C18.5153035,44.8569396 18.2023805,40.6460514 18.1880177,36.3125 L5.67834774,36.3125 Z M11.4635557,53.8125 C14.4894014,57.9908904 18.4499496,61.2126457 22.897156,63.3392578 C21.726117,60.5144074 20.7492723,57.3019861 19.9943968,53.8125 L11.4635557,53.8125 Z M29.6362144,65.6397217 C33.7725701,66.5297297 38.1084203,66.5614212 42.3593632,65.6468762 C44.2256457,62.6303326 45.7712051,58.5584254 46.8814174,53.8125 L25.1185826,53.8125 C26.2279174,58.5546741 27.7719113,62.6238951 29.6362144,65.6397217 Z M49.104926,63.3342346 C49.4536331,63.1667252 49.8005995,62.9919482 50.1456472,62.8098484 C50.6660934,62.5351816 51.2667504,62.4529133 51.8418834,62.5775255 L64.2625301,65.2686656 L60.0398334,56.7610627 C59.6199098,55.9150291 59.7126416,54.9045615 60.2795372,54.1490894 C60.3633414,54.037408 60.4463215,53.9252084 60.5284745,53.8125 L52.0056032,53.8125 C51.2511751,57.2999179 50.2750409,60.5105993 49.104926,63.3342346 Z M47.8490742,48.8125 C48.4589704,44.904106 48.7965711,40.6820713 48.8119502,36.3125 L23.1880441,36.3125 C23.2034289,40.6820713 23.5410296,44.904106 24.1509258,48.8125 L47.8490742,48.8125 Z M47.0242348,18.8125 L24.9757652,18.8125 C24.1243104,22.6281487 23.5506505,26.8585079 23.3122181,31.3125 L48.6877819,31.3125 C48.4493495,26.8585079 47.8756896,22.6281487 47.0242348,18.8125 Z" transform="translate(34 34)"/>
</svg>
