<svg xmlns="http://www.w3.org/2000/svg" width="256" height="256" viewBox="0 0 256 256">
  <g fill="none" transform="translate(46 90)">
    <path fill="#06C" d="M40.0268885,36.0047242 C41.0729832,37.0954424 42.0089628,38.2952323 43,39.3859505 L43,39.4950224 C42.3943661,39.1678069 41.8437899,38.8405915 41.2381562,38.5133759 C37.6594111,36.4410114 33.9705505,34.6958623 29.8412291,33.8778235 C22.5736234,32.4598899 16.5172855,34.5322544 11.5070423,39.9313097 C7.87323932,43.8578953 5.45070432,48.4934477 3.74391812,53.5107515 C2.75288095,56.4556907 2.03713192,59.5642375 1.2112675,62.5637127 C1.15620992,62.7273204 1.15620992,62.8363923 1.15620992,63 L1.04609475,63 C0.770806612,61.6366022 0.55057628,60.3277403 0.330345723,58.9643425 C0.165172749,57.9281603 0.110115166,56.891978 0,55.8557956 L0,53.0744642 C0.110115166,51.874674 0.220230557,50.7294201 0.385403306,49.5841659 C1.37644048,43.0398567 3.85403329,37.2045141 8.97439188,32.7325695 C13.3790012,28.8605197 18.5544174,27.2789783 24.390525,27.8788734 C30.6670935,28.5333044 35.7323943,31.5873154 40.0268885,36.0047242 Z M1.04609475,34.259575 C0.991037169,34.3141108 0.991037169,34.4231827 1.04609475,34.5867904 C0.935979586,34.5322544 0.880922003,34.4777187 0.825864195,34.4231827 C0.935979586,33.9323594 1.04609475,33.4960722 1.2112675,33.0052489 C2.9180537,27.8788734 5.56081948,23.4614646 10.0204866,20.18931 C12.8284252,18.1714813 15.9667094,17.0262271 19.3802816,16.5899398 C24.5006402,15.9355089 29.3457106,14.4085034 33.4750321,11.2454205 C35.346991,9.82748692 36.9436618,8.13687375 38.099872,6.06450904 C38.1549295,6.00997307 38.2099871,5.90090137 38.2650447,5.8463654 C38.2650447,5.8463654 38.3201023,5.90090137 38.3751601,5.90090137 C38.0448144,6.77347593 37.7695262,7.70058647 37.4391805,8.57316104 C35.346991,13.8086084 32.2087068,18.280553 27.4186939,21.4981719 C24.4455826,23.5160006 21.1421254,24.5521829 17.6734954,25.2066138 C13.8745199,25.9155807 10.240717,27.0608346 6.88220238,28.9695917 C4.51472473,30.2784535 2.42253523,31.9145307 1.04609475,34.259575 Z M26.5377721,11.627172 C24.225352,14.3539674 20.5915493,14.2994315 18.2791293,11.5726361 C16.021767,8.79130468 16.1318822,4.37389587 18.5544174,1.75617217 C19.6005121,0.610917997 20.8668375,-0.0980488952 22.4635083,0.0110230388 C24.1702945,-0.0435129282 25.4366198,0.719989705 26.4827145,1.91977985 C28.7400768,4.53750355 28.7951344,8.95491235 26.5377721,11.627172 Z"/>
    <path fill="#003" d="M16.4953055,65.4142425 C16.2201358,65.4142425 16,65.6349584 16,65.9108532 C16,66.1867479 16.2201358,66.4074636 16.4953055,66.4074636 L58.6512969,65.9108532 L16.4953055,65.4142425 Z M67.0714883,65.9627274 L64.3748259,65.9627274 C63.7694526,65.9627274 63.274147,65.9627274 62.668774,65.9078789 C62.5587059,65.9627274 62.5587059,66.2369697 62.6137401,66.2918182 L62.8338756,66.3466668 C63.6593845,66.4563636 63.7144187,66.6757576 63.7144187,68.2115151 L63.7144187,73.4769698 C63.7144187,75.0127274 63.6593845,75.1772728 62.8338756,75.2869696 L62.4486382,75.3418182 C62.3385704,75.4515153 62.3936043,75.6709092 62.503672,75.7257575 C63.2191131,75.6709092 63.7144187,75.6709092 64.3197917,75.6709092 C64.925165,75.6709092 65.4204706,75.6709092 66.2459795,75.7257575 C66.3560472,75.6709092 66.3560472,75.3966667 66.3010133,75.3418182 L65.8057081,75.2869696 C64.925165,75.2321213 64.925165,75.0127274 64.925165,73.4769698 L64.925165,71.4475759 C64.925165,71.0636365 64.9801989,71.0636365 65.4204706,71.0636365 L66.4110811,71.0636365 C66.9614205,71.0636365 67.346658,71.0636365 67.5667939,71.1184848 C67.8419633,71.2281819 67.9520314,71.3927273 68.0620991,71.6669698 L68.2272011,72.2154545 C68.3372688,72.3251516 68.5574044,72.3251516 68.6124386,72.2154545 C68.6124386,71.8863637 68.5574044,71.3378788 68.5574044,70.789394 C68.5574044,70.2409091 68.6124386,69.6375758 68.6124386,69.308485 C68.5574044,69.1987879 68.282235,69.1987879 68.2272011,69.308485 L68.117133,69.9118183 C68.0070652,70.2957576 67.8969975,70.3506062 67.7318955,70.4054547 C67.5667939,70.460303 67.0714883,70.5151516 66.4661153,70.5151516 L65.4755045,70.5151516 C65.0352328,70.5151516 64.9801989,70.5151516 64.9801989,70.1312122 L64.9801989,67.0596971 C64.9801989,66.5112122 64.9801989,66.4563636 65.4204706,66.4563636 L66.3010133,66.4563636 C66.9063867,66.4563636 67.4016919,66.4563636 67.7318955,66.5660607 C68.4473366,66.7306061 68.6674724,67.2790911 68.7775402,67.9372729 C68.887608,68.0469697 69.1077438,67.9921212 69.1077438,67.8824243 C69.0527099,67.3339394 69.0527099,66.6209092 69.0527099,65.9627274 C68.887608,65.9627274 68.0620991,65.9627274 67.0714883,65.9627274 Z M72.9050851,69.6924244 C71.1990332,69.6924244 69.768151,71.008788 69.768151,72.8736363 C69.768151,74.6836364 71.0889654,75.8903031 72.7950173,75.8903031 C74.611137,75.8903031 75.8769173,74.5739395 75.8769173,72.7639395 C75.8769173,70.8990909 74.5561031,69.6924244 72.9050851,69.6924244 Z M72.960119,75.3966667 C71.6943385,75.3966667 71.0889654,73.970606 71.0889654,72.6542424 C71.0889654,71.0636365 71.8044065,70.1312122 72.7950173,70.1312122 C74.1708657,70.1312122 74.6661709,71.7218183 74.6661709,72.9284849 C74.611137,74.0254546 74.2258995,75.3966667 72.960119,75.3966667 Z M81.9856838,74.1351516 C81.6554802,74.6287878 81.2152088,75.0127274 80.3346658,75.0127274 C78.7386819,75.0127274 77.9682067,73.6415152 77.9682067,72.489697 C77.9682067,70.9539394 78.9588175,70.1312122 80.0044622,70.1312122 C80.6098355,70.1312122 81.1601747,70.5151516 81.4903783,70.8990909 C81.5454124,70.9539394 81.6004463,71.008788 81.7105141,71.008788 C81.875616,71.008788 82.0407177,70.7345455 82.0407177,70.460303 C82.0407177,70.1860608 81.9306499,69.9666668 81.8205819,69.8569698 C81.4353444,69.6924244 80.8299713,69.5827273 80.4997677,69.5827273 C78.0782747,69.5827273 76.9775961,71.2830305 76.9775961,72.818788 C76.9775961,73.7512121 77.3077995,74.4642424 77.803105,74.9578789 C78.2984103,75.4515153 79.0138514,75.7257575 79.8393605,75.7257575 C80.6648694,75.7257575 81.765548,75.3418182 82.3158874,74.2448485 C82.2058194,74.19 82.0957516,74.1351516 81.9856838,74.1351516 Z M88.9749931,75.0675757 C88.5897556,75.0675757 88.5347217,74.6287878 88.5347217,73.4769698 L88.5347217,71.008788 C88.5347217,70.460303 88.5347217,70.0215152 88.5897556,69.7472729 C88.5897556,69.6924244 88.5347217,69.6375758 88.4796876,69.6375758 C88.149484,69.8021212 87.3239751,69.9118183 86.7736359,69.9118183 C86.6635679,69.9666668 86.6635679,70.1860608 86.7736359,70.2409091 L86.9387376,70.2957576 C87.379009,70.460303 87.489077,70.5151516 87.489077,71.4475759 L87.489077,73.8609092 C87.489077,74.299697 87.379009,74.519091 87.2139073,74.6836364 C86.8837037,74.9578789 86.4434323,75.1224243 86.0031607,75.1224243 C84.9024821,75.1224243 84.6273124,74.4642424 84.6273124,73.4221213 L84.6273124,70.9539394 C84.6273124,70.2409091 84.6273124,69.9118183 84.6823465,69.6924244 C84.6823465,69.6375758 84.6273124,69.5827273 84.5172446,69.5827273 C84.187041,69.6924244 83.6367018,69.8569698 82.9212607,69.8569698 C82.8111927,69.9118183 82.8111927,70.1312122 82.8662266,70.1860608 L83.0313285,70.2409091 C83.4715999,70.4054547 83.4715999,70.5700001 83.4715999,71.5024244 L83.4715999,73.970606 C83.4715999,75.1772728 83.9669054,75.7806061 85.2326857,75.7806061 C86.1132287,75.7806061 86.8286698,75.2869696 87.2689412,75.0127274 C87.379009,75.0127274 87.379009,75.0675757 87.379009,75.2321213 L87.379009,75.8354546 C87.4340429,75.8903031 87.489077,75.9451515 87.5441109,75.9451515 C88.0394162,75.6709092 88.9199592,75.5063636 89.4702984,75.3966667 C89.5803664,75.3418182 89.5803664,75.0675757 89.4702984,74.9578789 C89.3602306,75.0675757 89.1400948,75.0675757 88.9749931,75.0675757 Z M92.5521986,72.2154545 C92.0568933,71.9412123 91.3964861,71.6121213 91.3964861,71.008788 C91.3964861,70.460303 91.7817236,70.1312122 92.3320628,70.1312122 C92.9374361,70.1312122 93.3777075,70.5700001 93.5978433,71.1733334 C93.6528772,71.2830305 93.873013,71.2281819 93.9280469,71.1184848 C93.9280469,70.7345455 93.8179791,70.2409091 93.7079111,69.9118183 C93.5978433,69.8021212 93.0475039,69.6375758 92.4421308,69.6375758 C91.3414522,69.6375758 90.4609092,70.2409091 90.4609092,71.2830305 C90.4609092,72.1057577 91.0662825,72.5993941 91.8917914,73.0930303 C92.4421308,73.4221213 93.0475039,73.7512121 93.0475039,74.4642424 C93.0475039,75.0675757 92.6072325,75.3966667 92.0568933,75.3966667 C91.2313842,75.3966667 90.7360789,74.6836364 90.5159431,73.9157577 C90.4609092,73.8060606 90.2407734,73.8609092 90.1857395,73.9157577 C90.1307056,74.4093939 90.2407734,75.1224243 90.3508414,75.3966667 C90.7360789,75.6709092 91.2313842,75.8354546 91.9468253,75.8354546 C93.0475039,75.8354546 94.0381147,75.2869696 94.0381147,74.19 C94.0381147,73.1478788 93.3226736,72.6542424 92.5521986,72.2154545 Z M100.367017,69.6924244 C98.6609649,69.6924244 97.2300827,71.008788 97.2300827,72.8736363 C97.2300827,74.6836364 98.5508971,75.8903031 100.256949,75.8903031 C102.073069,75.8903031 103.338849,74.5739395 103.338849,72.7639395 C103.338849,70.8990909 101.963001,69.6924244 100.367017,69.6924244 Z M100.367017,75.3966667 C99.1012365,75.3966667 98.4958632,73.970606 98.4958632,72.6542424 C98.4958632,71.0636365 99.2113043,70.1312122 100.201915,70.1312122 C101.577763,70.1312122 102.073069,71.7218183 102.073069,72.9284849 C102.073069,74.0254546 101.687831,75.3966667 100.367017,75.3966667 Z M110.823464,75.2869696 C110.273125,75.2321213 110.273125,75.0675757 110.273125,74.0254546 L110.273125,71.5024244 C110.273125,70.5151516 109.777819,69.6924244 108.567073,69.6924244 C107.796598,69.6924244 107.136191,70.0763637 106.530817,70.460303 C106.420749,70.460303 106.365715,70.4054547 106.365715,70.2957576 C106.365715,70.1860608 106.365715,69.9666668 106.420749,69.5827273 C106.365715,69.527879 106.310681,69.4730304 106.255647,69.4730304 C105.980478,69.6924244 105.099935,70.0763637 104.769731,70.1860608 C104.714698,70.2409091 104.714698,70.4054547 104.769731,70.460303 L104.879799,70.5700001 C105.265037,70.8442426 105.265037,70.8990909 105.265037,71.5024244 L105.265037,74.0803031 C105.265037,75.1224243 105.265037,75.2869696 104.714698,75.3418182 L104.384494,75.3966667 C104.274426,75.4515153 104.32946,75.7257575 104.439528,75.7806061 C104.824765,75.7257575 105.265037,75.7257575 105.815376,75.7257575 C106.310681,75.7257575 106.750953,75.7257575 107.136191,75.7806061 C107.246258,75.7257575 107.246258,75.5063636 107.191224,75.3966667 L106.916055,75.3418182 C106.365715,75.2321213 106.365715,75.1224243 106.365715,74.0803031 L106.365715,71.8315152 C106.365715,71.3927273 106.420749,71.2281819 106.585851,70.9539394 C106.805987,70.679697 107.301292,70.460303 107.851632,70.460303 C108.842242,70.460303 109.22748,71.0636365 109.22748,71.8863637 L109.22748,74.0803031 C109.22748,75.1224243 109.22748,75.2869696 108.67714,75.3418182 L108.401971,75.3966667 C108.291903,75.4515153 108.346937,75.7257575 108.457005,75.7806061 C108.842242,75.7257575 109.282514,75.7257575 109.832853,75.7257575 C110.328158,75.7257575 110.76843,75.7257575 111.208701,75.7806061 C111.318769,75.7257575 111.318769,75.5063636 111.263735,75.3966667 L110.823464,75.2869696 Z M122.985963,73.3124242 C122.655759,74.19 121.83025,75.3966667 119.904062,75.3966667 C117.482569,75.3966667 115.556382,73.6963638 115.556382,70.6248487 C115.556382,67.6081818 117.482569,66.1821214 119.683927,66.1821214 C121.83025,66.1821214 122.490657,67.3339394 122.710793,68.3212122 C122.820861,68.4309091 123.040997,68.3760607 123.09603,68.2663637 C122.985963,67.3887879 122.930929,66.4563636 122.875895,66.1272728 C122.765827,66.1272728 122.655759,66.1272728 122.490657,66.0724243 C121.775216,65.9078789 120.674537,65.7433335 119.904062,65.7433335 C118.363112,65.7433335 116.987264,66.1272728 115.941619,67.0048486 C114.840941,67.8824243 114.070466,69.2536365 114.070466,70.8990909 C114.070466,72.7639395 115.006043,74.1351516 116.161755,74.9030303 C117.2074,75.6160607 118.47318,75.8903031 119.793995,75.8903031 C120.729572,75.8903031 121.775216,75.6709092 122.10542,75.5612121 C122.270522,75.5063636 122.435623,75.4515153 122.600725,75.3966667 C122.820861,75.1224243 123.206098,74.1351516 123.316166,73.3672728 C123.316166,73.2575759 123.09603,73.2575759 122.985963,73.3124242 Z M130.525611,75.2869696 C129.975272,75.2321213 129.975272,75.0675757 129.975272,74.0254546 L129.975272,71.5572727 C129.975272,70.5151516 129.479966,69.6924244 128.104118,69.6924244 C127.333643,69.6924244 126.673236,70.0215152 126.122897,70.460303 C126.067863,70.4054547 126.067863,70.2957576 126.067863,70.1860608 L126.067863,67.1145454 C126.067863,66.4563636 126.122897,65.7433335 126.122897,65.3045456 C126.067863,65.2496971 126.012829,65.1948485 125.957795,65.1948485 C125.407456,65.469091 124.747048,65.688485 124.361811,65.7981818 C124.306777,65.8530303 124.306777,66.0724243 124.361811,66.0724243 L124.526913,66.1821214 C124.967184,66.4563636 124.967184,66.5112122 124.967184,67.3887879 L124.967184,73.970606 C124.967184,75.0127274 124.967184,75.1772728 124.416845,75.2321213 L124.031607,75.2869696 C123.92154,75.3418182 123.976573,75.6160607 124.086641,75.6709092 C124.581947,75.6160607 125.022218,75.6160607 125.517523,75.6160607 C126.012829,75.6160607 126.4531,75.6160607 126.893372,75.6709092 C127.00344,75.6160607 127.00344,75.3418182 126.948406,75.2869696 L126.618202,75.2321213 C126.067863,75.1772728 126.067863,75.0127274 126.067863,73.970606 L126.067863,71.5024244 C126.067863,71.008788 126.122897,70.8990909 126.398066,70.679697 C126.673236,70.460303 127.058474,70.2957576 127.553779,70.2957576 C128.489356,70.2957576 128.929627,70.8990909 128.929627,71.8863637 L128.929627,73.970606 C128.929627,75.0127274 128.929627,75.1772728 128.379288,75.2321213 L128.104118,75.2869696 C127.99405,75.3418182 128.049084,75.6160607 128.159152,75.6709092 C128.54439,75.6160607 128.984661,75.6160607 129.535001,75.6160607 C130.030306,75.6160607 130.470577,75.6160607 131.020917,75.6709092 C131.130984,75.6160607 131.130984,75.3966667 131.075951,75.2869696 L130.525611,75.2869696 Z M132.341731,67.2790911 C132.341731,67.6630304 132.616901,67.9921212 133.112206,67.9921212 C133.497444,67.9921212 133.882681,67.7727272 133.882681,67.2242425 C133.882681,66.8403032 133.607511,66.4563636 133.16724,66.4563636 C132.671935,66.5112122 132.341731,66.8403032 132.341731,67.2790911 Z M134.267919,75.2869696 C133.717579,75.2321213 133.717579,75.0675757 133.717579,74.0254546 L133.717579,71.3378788 C133.717579,70.7345455 133.772613,70.0215152 133.772613,69.527879 C133.772613,69.4730304 133.717579,69.4181819 133.607511,69.4181819 C133.277308,69.6375758 132.451799,70.0215152 132.121595,70.1312122 C132.066561,70.1860608 132.066561,70.3506062 132.121595,70.4054547 L132.231663,70.5151516 C132.616901,70.789394 132.616901,70.8442426 132.616901,71.4475759 L132.616901,74.0254546 C132.616901,75.0675757 132.616901,75.2321213 132.066561,75.2869696 L131.736358,75.3418182 C131.62629,75.3966667 131.681324,75.6709092 131.791392,75.7257575 C132.176629,75.6709092 132.616901,75.6709092 133.16724,75.6709092 C133.662545,75.6709092 134.102817,75.6709092 134.543088,75.7257575 C134.653156,75.6709092 134.653156,75.4515153 134.598122,75.3418182 L134.267919,75.2869696 Z M137.900158,75.2869696 C137.349819,75.2321213 137.349819,75.0675757 137.349819,74.0254546 L137.349819,67.1145454 C137.349819,66.4563636 137.404853,65.7433335 137.404853,65.3045456 C137.349819,65.2496971 137.294785,65.1948485 137.239751,65.1948485 C136.689412,65.469091 136.029004,65.688485 135.643767,65.7981818 C135.588733,65.8530303 135.588733,66.0724243 135.643767,66.0724243 L135.808869,66.1821214 C136.24914,66.4563636 136.24914,66.5112122 136.24914,67.3887879 L136.24914,73.970606 C136.24914,75.0127274 136.24914,75.1772728 135.698801,75.2321213 L135.368597,75.2869696 C135.258529,75.3418182 135.313563,75.6160607 135.423631,75.6709092 C135.863903,75.6160607 136.304174,75.6160607 136.854513,75.6160607 C137.349819,75.6160607 137.79009,75.6160607 138.285396,75.6709092 C138.395463,75.6160607 138.395463,75.3966667 138.34043,75.2869696 L137.900158,75.2869696 Z M145.880078,75.0675757 C145.659942,75.1224243 145.384773,75.2321213 145.274705,75.2321213 C144.889467,75.2321213 144.834433,74.6836364 144.834433,73.5318181 L144.834433,67.1145454 C144.834433,66.4563636 144.889467,65.7433335 144.889467,65.3045456 C144.834433,65.2496971 144.779399,65.1948485 144.724366,65.1948485 C144.174026,65.469091 143.513619,65.688485 143.128381,65.7981818 C143.073348,65.8530303 143.073348,66.0724243 143.128381,66.0724243 L143.293483,66.1821214 C143.733755,66.4563636 143.733755,66.5112122 143.733755,67.3887879 L143.733755,69.5827273 C143.733755,69.6924244 143.733755,69.8021212 143.623687,69.8021212 C143.458585,69.7472729 143.128381,69.6924244 142.633076,69.6924244 C140.651855,69.6924244 139.110905,71.008788 139.110905,73.038182 C139.110905,74.5739395 140.211583,75.8354546 141.807567,75.8354546 C142.523008,75.8354546 143.018314,75.6160607 143.678721,75.1772728 L143.733755,75.1772728 C143.788789,75.2321213 143.788789,75.3966667 143.788789,75.6160607 L143.788789,75.8903031 C143.788789,75.9451515 143.843823,76 143.953891,76 C144.339128,75.8354546 145.274705,75.6160607 145.880078,75.5063636 C145.990146,75.4515153 145.990146,75.0675757 145.880078,75.0675757 Z M143.733755,74.19 C143.733755,74.4093939 143.733755,74.6287878 143.623687,74.7384849 C143.403551,74.9578789 142.908246,75.1224243 142.467974,75.1224243 C141.037092,75.1224243 140.266617,73.8609092 140.266617,72.5445455 C140.266617,71.2830305 140.982058,70.1312122 142.302873,70.1312122 C142.853212,70.1312122 143.293483,70.460303 143.513619,70.7345455 C143.623687,70.8990909 143.678721,71.008788 143.678721,71.2830305 L143.678721,74.19 L143.733755,74.19 Z M150.227759,69.6924244 C149.677419,69.6924244 149.12708,70.1312122 148.631775,70.5700001 C148.576741,70.5700001 148.576741,70.5151516 148.576741,70.460303 L148.576741,69.6375758 C148.576741,69.5827273 148.521707,69.527879 148.466673,69.527879 C148.081435,69.7472729 147.31096,70.1312122 146.980757,70.2409091 C146.925723,70.2957576 146.925723,70.460303 146.980757,70.5151516 L147.090825,70.6248487 C147.476062,70.8990909 147.476062,70.9539394 147.476062,71.5572727 L147.476062,74.1351516 C147.476062,75.1772728 147.476062,75.3418182 146.925723,75.3966667 L146.650553,75.4515153 C146.540485,75.5063636 146.595519,75.7806061 146.705587,75.8354546 C147.090825,75.7806061 147.531096,75.7806061 148.081435,75.7806061 C148.576741,75.7806061 149.017012,75.7806061 149.732453,75.8354546 C149.842521,75.7806061 149.842521,75.5612121 149.787487,75.4515153 L149.237148,75.3966667 C148.686809,75.3418182 148.631775,75.1772728 148.631775,74.1351516 L148.631775,72.1606062 C148.631775,71.6669698 148.686809,71.2281819 148.796877,71.008788 C148.906944,70.8442426 149.072046,70.7345455 149.347216,70.7345455 C149.567352,70.7345455 149.787487,70.8442426 150.007623,70.9539394 C150.117691,71.008788 150.172725,71.0636365 150.337827,71.0636365 C150.557962,71.0636365 150.9432,70.8990909 150.9432,70.4054547 C150.888166,69.9118183 150.612996,69.6924244 150.227759,69.6924244 Z M156.061355,74.299697 C155.621084,74.8481818 155.180813,75.0127274 154.685507,75.0127274 C153.089523,75.0127274 152.264014,73.7512121 152.264014,72.2703031 C152.264014,71.8863637 152.264014,71.8863637 152.649252,71.8863637 L155.345914,71.8863637 C155.951288,71.8863637 156.171423,71.8863637 156.226457,71.7766667 C156.281491,71.7218183 156.281491,71.6121213 156.281491,71.3927273 C156.281491,70.5151516 155.455982,69.6375758 154.190202,69.6375758 C152.429116,69.6375758 151.21837,71.1184848 151.21837,72.9284849 C151.21837,73.5866667 151.383471,74.2448485 151.823743,74.8481818 C152.264014,75.3966667 152.979455,75.8354546 153.970066,75.8354546 C154.740541,75.8354546 155.786186,75.4515153 156.281491,74.4642424 C156.336525,74.3545456 156.226457,74.2448485 156.061355,74.299697 Z M154.080134,70.1312122 C154.905643,70.1312122 155.235846,70.6248487 155.235846,71.0636365 C155.235846,71.2281819 155.180813,71.3378788 155.125779,71.3378788 C155.015711,71.4475759 154.685507,71.5024244 153.584828,71.5024244 L152.539184,71.5024244 C152.429116,71.5024244 152.429116,71.4475759 152.429116,71.4475759 C152.48415,70.8990909 153.199591,70.1312122 154.080134,70.1312122 Z M163.931208,75.2869696 L163.601004,75.2321213 C163.050665,75.1772728 163.050665,75.0127274 163.050665,73.970606 L163.050665,71.4475759 C163.050665,70.460303 162.555359,69.6375758 161.344613,69.6375758 C160.574138,69.6375758 159.913731,70.0215152 159.308357,70.4054547 C159.198289,70.4054547 159.143256,70.3506062 159.143256,70.2409091 C159.143256,70.1312122 159.143256,69.9118183 159.198289,69.527879 C159.143256,69.4730304 159.088222,69.4181819 159.033188,69.4181819 C158.758018,69.6375758 157.877475,70.0215152 157.547272,70.1312122 C157.492238,70.1860608 157.492238,70.3506062 157.547272,70.4054547 L157.657339,70.5151516 C158.042577,70.789394 158.042577,70.8442426 158.042577,71.4475759 L158.042577,74.0254546 C158.042577,75.0675757 158.042577,75.2321213 157.492238,75.2869696 L157.162034,75.3418182 C157.051966,75.3966667 157.107,75.6709092 157.217068,75.7257575 C157.602306,75.6709092 158.042577,75.6709092 158.592916,75.6709092 C159.088222,75.6709092 159.528493,75.6709092 159.913731,75.7257575 C160.023799,75.6709092 160.023799,75.4515153 159.968765,75.3418182 L159.693595,75.2869696 C159.143256,75.1772728 159.143256,75.0675757 159.143256,74.0254546 L159.143256,71.7766667 C159.143256,71.3378788 159.198289,71.1733334 159.363391,70.8990909 C159.583527,70.6248487 160.078832,70.4054547 160.629172,70.4054547 C161.619782,70.4054547 162.00502,71.008788 162.00502,71.8315152 L162.00502,74.0254546 C162.00502,75.0675757 162.00502,75.2321213 161.454681,75.2869696 L161.179511,75.3418182 C161.069443,75.3966667 161.124477,75.6709092 161.234545,75.7257575 C161.619782,75.6709092 162.060054,75.6709092 162.610393,75.6709092 C163.105699,75.6709092 163.54597,75.6709092 163.986242,75.7257575 C163.986242,75.6160607 164.041275,75.3966667 163.931208,75.2869696 Z M140.211583,16.7087882 C140.927024,16.818485 141.697499,17.037879 142.082737,17.4218183 C142.743144,18.1348487 142.743144,18.7381819 142.743144,19.6157577 L142.743144,28.4463637 C142.743144,29.927273 142.798178,33.6021214 142.357906,34.699091 C142.192805,35.0281821 141.697499,35.1927275 141.037092,35.3024243 L140.211583,35.4121214 C140.046481,35.5766668 140.046481,36.0154547 140.266617,36.1800001 C141.312262,36.1251517 142.137771,36.0703032 143.458585,36.0703032 C144.614298,36.0703032 145.659942,36.1251517 147.035791,36.1800001 C147.255926,36.0154547 147.255926,35.6863639 147.090825,35.4121214 L146.155248,35.3024243 C145.384773,35.247576 144.779399,35.0830304 144.614298,34.699091 C144.118992,33.7666667 144.063958,29.8175759 144.063958,28.3915154 L144.063958,21.8096971 C144.063958,20.877273 144.118992,20.2190912 144.22906,19.8351516 L144.284094,19.8351516 C144.944501,20.4933334 146.980757,23.0163638 147.806266,23.9487881 L154.905643,32.0115152 C157.547272,35.0281821 158.427814,36.0703032 158.813052,36.6187879 C159.143256,36.6187879 159.308357,36.4542425 159.418425,36.2896971 C159.308357,35.5218182 159.308357,31.8469699 159.308357,30.9693941 L159.308357,23.6196971 C159.308357,22.1936366 159.253324,18.4639397 159.748629,17.36697 C159.858697,17.1475761 160.46407,16.8733336 161.454681,16.7087882 L161.894952,16.6539396 C162.060054,16.4893942 162.060054,16.0506064 161.839918,15.8860608 C160.794274,15.9409093 160.023799,15.9957578 158.702984,15.9957578 C157.547272,15.9957578 156.501627,15.9957578 155.070745,15.8860608 C154.850609,15.9957578 154.795575,16.4893942 155.015711,16.6539396 L155.511016,16.7087882 C156.721763,16.8733336 157.217068,17.037879 157.38217,17.3121215 C157.987543,18.2445457 157.987543,22.1936366 157.987543,23.6196971 L157.987543,30.1466669 C157.987543,30.8048487 157.987543,31.2984851 157.877475,31.408182 L157.822441,31.408182 C156.391559,29.927273 154.905643,28.2269698 152.75932,25.868485 L149.787487,22.5227274 C148.796877,21.3709092 145.164637,17.36697 144.559264,15.8312124 C144.174026,15.8860608 143.623687,15.9409093 143.128381,15.9409093 C142.578042,15.9409093 140.982058,15.9409093 139.661244,15.8312124 C139.441108,15.9409093 139.441108,16.4345457 139.60621,16.5990911 L140.211583,16.7087882 Z M159.033188,50.1663637 C160.133866,50.1663637 160.959375,50.9342426 161.454681,52.1409092 C161.564749,52.3054546 162.00502,52.2506062 162.115088,52.0312123 C162.115088,51.318182 161.949986,50.4406062 161.674816,49.8372729 C161.454681,49.617879 160.409036,49.3436365 159.253324,49.3436365 C157.217068,49.3436365 155.56605,50.4406062 155.56605,52.4151516 C155.56605,53.8960607 156.666729,54.8284849 158.262713,55.7609092 C159.253324,56.309394 160.354002,57.0224243 160.354002,58.2839394 C160.354002,59.4357576 159.528493,60.0390909 158.537882,60.0390909 C156.996932,60.0390909 156.116389,58.7227273 155.676118,57.2418183 C155.56605,57.0772729 155.180813,57.1321214 155.070745,57.2418183 C155.015711,58.119394 155.180813,59.4906062 155.400948,59.9842426 C156.061355,60.5327273 157.051966,60.8069698 158.317747,60.8069698 C160.354002,60.8069698 162.225156,59.7648486 162.225156,57.7354547 C162.225156,55.8157578 160.904341,54.8833335 159.473459,54.0606063 C158.537882,53.5121213 157.38217,52.9087881 157.38217,51.8118184 C157.272102,50.8793941 157.987543,50.1663637 159.033188,50.1663637 Z M148.796877,59.7648486 L148.191503,59.819697 C148.026401,59.929394 148.081435,60.4230305 148.246537,60.4778788 C149.072046,60.4230305 149.897555,60.4230305 150.833132,60.4230305 C151.768709,60.4230305 152.594218,60.4230305 153.474761,60.4778788 C153.639863,60.4230305 153.694896,59.929394 153.529795,59.819697 L152.869387,59.7648486 C151.878777,59.6551516 151.823743,59.3809091 151.823743,57.4063637 L151.823743,44.6266668 C151.823743,43.4200002 151.878777,42.1036366 151.878777,41.2809092 C151.823743,41.1712123 151.713675,41.1163638 151.603607,41.1163638 C150.612996,41.6100002 149.347216,42.048788 148.686809,42.268182 C148.576741,42.3778788 148.576741,42.7069699 148.686809,42.8166667 L148.961978,42.9812123 C149.787487,43.4748485 149.787487,43.6393941 149.787487,45.23 L149.787487,57.4612122 C149.842521,59.3809091 149.842521,59.6551516 148.796877,59.7648486 Z M142.027703,59.9842426 L142.137771,60.7521213 C145.109603,60.4230305 147.090825,58.0645455 147.090825,54.9930303 C147.090825,51.6472727 144.614298,49.3984851 141.587431,49.3984851 C141.312262,49.3984851 141.092126,49.3984851 140.816956,49.4533334 L140.927024,50.2212123 C141.037092,50.2212123 141.14716,50.2212123 141.257228,50.2212123 C143.843823,50.2212123 144.779399,53.128182 144.779399,55.4318182 C144.724366,57.4063637 144.063958,59.7100001 142.027703,59.9842426 Z M135.753835,55.2672728 C135.753835,58.667879 138.175328,60.8618183 141.312262,60.8618183 C141.587431,60.8618183 141.862601,60.8618183 142.137771,60.8069698 L142.027703,60.0390909 C141.917635,60.0390909 141.752533,60.0390909 141.587431,60.0390909 C139.165938,60.0390909 138.06526,57.4063637 138.06526,54.938182 C138.06526,52.1409092 139.220972,50.4406062 140.87199,50.2760608 L140.761923,49.5081819 C137.900158,49.7824244 135.753835,52.1409092 135.753835,55.2672728 Z M128.874593,49.3984851 C128.599424,49.3984851 128.379288,49.3984851 128.104118,49.4533334 C125.242354,49.7824244 123.09603,52.1409092 123.09603,55.2672728 C123.09603,58.667879 125.517523,60.8618183 128.654458,60.8618183 C128.929627,60.8618183 129.204797,60.8618183 129.479966,60.8069698 L129.369899,60.0390909 C129.259831,60.0390909 129.094729,60.0390909 128.929627,60.0390909 C126.508134,60.0390909 125.407456,57.4063637 125.407456,54.938182 C125.407456,52.1409092 126.563168,50.4406062 128.214186,50.2760608 C128.324254,50.2760608 128.434322,50.2760608 128.54439,50.2760608 C131.130984,50.2760608 132.066561,53.1830305 132.066561,55.4866668 C132.066561,57.4612122 131.406154,59.7648486 129.369899,60.0390909 L129.479966,60.8069698 C132.451799,60.4230305 134.43302,58.119394 134.43302,55.0478789 C134.377986,51.7021213 131.901459,49.3984851 128.874593,49.3984851 Z M128.764525,36.5639396 C129.259831,36.5639396 129.81017,36.5090911 130.305476,36.4542425 C135.478665,35.7412122 139.386074,31.5178791 139.386074,25.9233335 C139.386074,20.548182 135.863903,15.4472729 128.764525,15.4472729 C128.214186,15.4472729 127.718881,15.5021214 127.223575,15.55697 L127.333643,16.4345457 C127.663847,16.3796972 127.939016,16.3796972 128.26922,16.3796972 C134.102817,16.3796972 136.359208,21.8096971 136.359208,26.8557578 C136.359208,32.2857577 133.497444,35.0830304 130.250442,35.5218182 C129.920238,35.5766668 129.590034,35.5766668 129.204797,35.5766668 C123.206098,35.5766668 121.004741,29.707879 121.004741,25.2103032 C121.004741,19.1769698 124.416845,16.818485 127.388677,16.4345457 L127.278609,15.55697 C121.775216,16.2700003 117.922841,20.6578791 117.922841,26.197576 C117.867807,31.737273 121.995352,36.5639396 128.764525,36.5639396 Z M98.8811007,19.7803033 C99.2113043,19.0124244 99.5415079,18.3542426 100.256949,17.6960608 C101.027424,16.9830304 102.678442,16.9281821 103.999256,16.9281821 L105.705308,16.9281821 C106.640885,16.9281821 106.640885,16.9830304 106.640885,17.9154547 L106.640885,31.5178791 C106.640885,34.699091 106.475783,35.1927275 104.769731,35.3024243 L103.669053,35.4121214 C103.448917,35.5766668 103.503951,36.0703032 103.669053,36.1800001 C105.650274,36.1251517 106.695919,36.0703032 107.906665,36.0703032 C109.117412,36.0703032 110.163057,36.1251517 111.924142,36.1800001 C112.089244,36.0703032 112.144278,35.5218182 111.979177,35.4121214 L110.988566,35.3024243 C109.22748,35.1378789 109.172446,34.699091 109.172446,31.5178791 L109.172446,17.9703033 C109.172446,16.9830304 109.117412,16.9281821 110.052989,16.9281821 L112.199312,16.9281821 C113.905364,16.9281821 115.061076,17.1475761 115.721484,17.6960608 C116.161755,18.0251518 116.381891,19.1769698 116.491959,19.9448487 C116.657061,20.1093941 117.152366,20.1093941 117.262434,19.8900002 C117.152366,18.9575759 117.372502,16.4893942 117.702705,15.2827275 C117.647671,15.1730306 117.317468,15.1181821 117.152366,15.1730306 C116.712094,15.9409093 116.436925,15.9957578 114.785907,15.9957578 L102.403272,15.9957578 C100.97239,15.9957578 99.9817793,16.0506064 99.8166776,15.0633335 C99.7066096,14.9536367 99.3213721,15.008485 99.2113043,15.0633335 C98.9911685,16.2700003 98.5508971,18.2445457 98.0555918,19.6157577 C98.2206935,19.8351516 98.6609649,19.9448487 98.8811007,19.7803033 Z M115.171144,59.8745455 L114.620805,59.819697 C113.630194,59.7100001 113.57516,59.4357576 113.57516,57.4612122 L113.57516,52.9087881 C113.57516,51.9763638 113.630194,51.8118184 114.1255,51.4278788 C114.620805,51.0439395 115.336246,50.7148487 116.271823,50.7148487 C118.032909,50.7148487 118.858418,51.8666667 118.858418,53.6218184 L118.858418,57.5160607 C118.858418,59.4906062 118.858418,59.7100001 117.812773,59.8745455 L117.262434,59.929394 C117.097332,60.0390909 117.152366,60.5327273 117.317468,60.5875759 C118.032909,60.5327273 118.858418,60.5327273 119.849029,60.5327273 C120.784605,60.5327273 121.610114,60.5327273 122.545691,60.5875759 C122.710793,60.5327273 122.765827,60.0390909 122.600725,59.929394 L121.885284,59.8745455 C120.894673,59.7648486 120.839639,59.4906062 120.839639,57.5160607 L120.839639,52.9636364 C120.839639,51.0439395 119.904062,49.4533334 117.317468,49.4533334 C115.941619,49.4533334 114.620805,50.1115152 113.630194,50.8793941 C113.57516,50.8245455 113.520126,50.6051516 113.520126,50.3857577 L113.520126,44.6266668 C113.520126,43.4200002 113.57516,42.1036366 113.57516,41.2809092 C113.520126,41.1712123 113.410059,41.1163638 113.299991,41.1163638 C112.30938,41.6100002 111.0436,42.048788 110.383192,42.268182 C110.273125,42.3778788 110.273125,42.7069699 110.383192,42.8166667 L110.658362,42.9812123 C111.483871,43.4748485 111.483871,43.6393941 111.483871,45.23 L111.483871,57.4612122 C111.483871,59.4357576 111.483871,59.7100001 110.438226,59.819697 L109.777819,59.8745455 C109.557684,59.9842426 109.667751,60.4778788 109.832853,60.5327273 C110.713396,60.4778788 111.538905,60.4778788 112.474482,60.4778788 C113.410059,60.4778788 114.235568,60.4778788 115.006043,60.5327273 C115.336246,60.4778788 115.39128,59.9842426 115.171144,59.8745455 Z M105.540206,50.3309091 C106.640885,50.3309091 107.68653,51.0439395 108.236869,51.7569698 C108.346937,51.8666667 108.457005,51.9215152 108.622107,51.9215152 C108.95231,51.9215152 109.22748,51.4278788 109.22748,50.9342426 C109.22748,50.4954547 109.062378,50.0566669 108.842242,49.8372729 C108.126801,49.5081819 107.026122,49.3984851 106.420749,49.3984851 C101.907967,49.3984851 99.8166776,52.5248485 99.8166776,55.4318182 C99.8166776,57.1869697 100.422051,58.5033333 101.412661,59.4357576 C102.348238,60.3681819 103.724087,60.8069698 105.154969,60.8069698 C106.750953,60.8069698 108.787208,60.0390909 109.722785,58.0645455 C109.667751,57.8451515 109.447615,57.6257576 109.22748,57.6806061 C108.622107,58.6130304 107.796598,59.3260608 106.200614,59.3260608 C103.283815,59.3260608 101.797899,56.8030304 101.797899,54.6639396 C101.797899,51.8118184 103.614019,50.3309091 105.540206,50.3309091 Z M94.5884541,50.6600001 L92.3870969,49.288788 C91.3964861,48.6854547 90.0756717,47.5336365 90.0756717,45.9430304 C90.0756717,44.6815153 90.6260111,42.9263638 93.3226736,42.9263638 C95.9092685,42.9263638 96.6797435,44.6815153 97.0099471,45.9978789 C97.1200149,46.1624243 97.5602863,46.0527275 97.6703543,45.8881821 C97.6703543,44.7363638 97.3951846,43.2554546 97.1750488,42.5972728 C96.9549132,42.5972728 96.5696755,42.5424245 96.2394721,42.4327274 C95.524031,42.268182 94.5334202,42.1036366 93.7079111,42.1036366 C90.1857395,42.1036366 88.149484,44.1878789 88.149484,46.7657578 C88.149484,49.0145455 89.7454681,50.5503031 91.0662825,51.4278788 L93.6528772,53.128182 C95.6340988,54.3896971 95.9092685,55.7060607 95.9092685,56.9127275 C95.9092685,58.5581819 94.8085897,60.0390909 92.4971647,60.0390909 C89.3602306,60.0390909 88.2045181,57.4063637 87.8192806,55.9803032 C87.7092126,55.8157578 87.3239751,55.8706061 87.1588734,56.09 C87.2139073,57.3515153 87.5441109,59.2712122 87.8743145,59.8745455 C88.3696198,60.148788 89.8555359,60.8618183 92.1119272,60.8618183 C95.6340988,60.8618183 97.8904899,58.8324244 97.8904899,55.8706061 C98.0005579,53.2927274 96.294506,51.7569698 94.5884541,50.6600001 Z M89.800502,36.5639396 C93.762945,36.5639396 96.294506,34.2603032 96.294506,30.9145456 C96.294506,28.0075758 94.4233522,26.2524243 92.4971647,25.0457578 L90.0756717,23.5100002 C88.9199592,22.7969699 87.489077,21.5354548 87.489077,19.7803033 C87.489077,18.3542426 88.149484,16.3796972 91.1213164,16.3796972 C94.0381147,16.3796972 94.8636238,18.3542426 95.3038952,19.8351516 C95.4689969,19.9996972 95.9643024,19.9448487 96.0743702,19.7254548 C96.0743702,18.4639397 95.7992005,16.7636365 95.524031,15.9957578 C95.3038952,15.9957578 94.8636238,15.9409093 94.4783863,15.8312124 C93.7079111,15.6118185 92.6072325,15.4472729 91.6166217,15.4472729 C87.6541787,15.4472729 85.3977876,17.8057579 85.3977876,20.7127274 C85.3977876,23.2357578 87.1588734,24.9360607 88.6998234,25.9781821 L91.6166217,27.8430304 C93.873013,29.2690911 94.1481827,30.7500002 94.1481827,32.1212123 C94.1481827,33.9312124 92.8824022,35.6315153 90.3508414,35.6315153 C86.8286698,35.6315153 85.5628893,32.6696971 85.067584,31.0790912 C84.957516,30.9145456 84.4622107,30.9693941 84.3521429,31.188788 C84.4071768,32.6148487 84.7924143,34.8087881 85.1776518,35.4669699 C85.6179232,35.7960607 87.2139073,36.5639396 89.800502,36.5639396 Z M72.1346101,15.5021214 C71.5842707,15.5021214 71.0889654,15.55697 70.5936599,15.6118185 C65.090267,16.3248486 61.2378918,20.7127274 61.2378918,26.2524243 C61.2378918,31.737273 65.3104025,36.5639396 72.1346101,36.5639396 C72.6299154,36.5639396 73.1802548,36.5090911 73.6755601,36.4542425 C78.8487497,35.7412122 82.7561588,31.5178791 82.7561588,25.9233335 C82.7561588,20.548182 79.2339872,15.5021214 72.1346101,15.5021214 Z M73.5654923,35.5218182 C73.2352887,35.5766668 72.9050851,35.5766668 72.5198476,35.5766668 C66.5211492,35.5766668 64.3197917,29.707879 64.3197917,25.2103032 C64.3197917,19.1769698 67.7318955,16.818485 70.703728,16.4345457 C71.0339316,16.3796972 71.309101,16.3796972 71.6393046,16.3796972 C77.4729014,16.3796972 79.7292925,21.8096971 79.7292925,26.8557578 C79.7292925,32.3406063 76.8675281,35.0830304 73.5654923,35.5218182 Z M75.1064423,50.3309091 C76.2071209,50.3309091 77.2527656,51.0439395 77.803105,51.7569698 C77.9131728,51.8666667 78.0232408,51.9215152 78.1883425,51.9215152 C78.5185461,51.9215152 78.7937158,51.4278788 78.7937158,50.9342426 C78.7937158,50.4954547 78.57358,50.0566669 78.4084783,49.8372729 C77.6930372,49.5081819 76.5923584,49.3984851 75.9869853,49.3984851 C71.4742029,49.3984851 69.3829135,52.5248485 69.3829135,55.4318182 C69.3829135,57.1869697 69.9882869,58.5033333 70.9788974,59.4357576 C71.9144743,60.3681819 73.2903226,60.8069698 74.7212048,60.8069698 C76.3171889,60.8069698 78.3534442,60.0390909 79.2890211,58.0645455 C79.2890211,57.8451515 79.0138514,57.6257576 78.7937158,57.6806061 C78.1883425,58.6130304 77.3628336,59.3260608 75.7668495,59.3260608 C72.8500512,59.3260608 71.3641352,56.8030304 71.3641352,54.6639396 C71.3641352,51.8118184 73.1802548,50.3309091 75.1064423,50.3309091 Z M65.090267,60.4778788 C66.0258436,60.4778788 66.8513528,60.4778788 67.6218278,60.5327273 C67.7869294,60.4778788 67.8419633,59.9842426 67.6768616,59.8745455 L67.1265222,59.819697 C66.1359117,59.7100001 66.0808775,59.4357576 66.0808775,57.4612122 L66.0808775,52.579697 C66.0808775,51.4827273 66.1359117,50.1663637 66.1909456,49.2339394 C66.1909456,49.1242426 66.0808775,49.069394 65.9157758,49.069394 C65.3104025,49.4533334 63.7144187,50.1663637 63.1090454,50.3857577 C62.9989776,50.4954547 62.9989776,50.769697 63.1090454,50.8793941 L63.3291812,51.0439395 C64.0446223,51.5375759 64.0446223,51.6472727 64.0446223,52.7442424 L64.0446223,57.4612122 C64.0446223,59.4357576 64.0446223,59.7100001 62.9989776,59.819697 L62.4486382,59.8745455 C62.2835365,59.9842426 62.3385704,60.4778788 62.503672,60.5327273 C63.274147,60.4778788 64.0996562,60.4778788 65.090267,60.4778788 Z M66.3560472,44.9557578 C66.3560472,44.1878789 65.8057081,43.5296971 64.9801989,43.5296971 C64.1546901,43.5296971 63.4942829,44.078182 63.4942829,45.0106061 C63.4942829,45.7236364 64.0446223,46.3818183 64.8701312,46.3818183 C65.6406061,46.3818183 66.3560472,45.9430304 66.3560472,44.9557578 Z M60.6875524,59.7648486 C59.6969416,59.6551516 59.6419077,59.3809091 59.6419077,57.4063637 L59.6419077,44.6266668 C59.6419077,43.4200002 59.6969416,42.1036366 59.6969416,41.2809092 C59.6419077,41.1712123 59.5318399,41.1163638 59.4217718,41.1163638 C58.4311613,41.6100002 57.1653808,42.048788 56.5049736,42.268182 C56.3949058,42.3778788 56.3949058,42.7069699 56.5049736,42.8166667 L56.7801433,42.9812123 C57.6056522,43.4748485 57.6056522,43.6393941 57.6056522,45.23 L57.6056522,57.4612122 C57.6056522,59.4357576 57.6056522,59.7100001 56.5600075,59.819697 L55.9546341,59.8745455 C55.7895325,59.9842426 55.8445664,60.4778788 56.0096683,60.5327273 C56.8351772,60.4778788 57.660686,60.4778788 58.596263,60.4778788 C59.5318399,60.4778788 60.3573488,60.4778788 61.2378918,60.5327273 C61.4029935,60.4778788 61.4580273,59.9842426 61.2929257,59.8745455 L60.6875524,59.7648486 Z M44.3975086,16.9830304 C45.7733569,17.0927275 45.8834249,17.6960608 45.8834249,19.9448487 L45.8834249,31.5178791 C45.8834249,34.699091 45.828391,35.0281821 44.177373,35.3024243 L43.6270336,35.4121214 C43.4619319,35.5766668 43.5169658,36.0703032 43.6820675,36.1800001 C44.7827463,36.1251517 45.828391,36.0703032 47.2042391,36.0703032 C48.4700196,36.0703032 50.0109698,36.1800001 50.8915126,36.1800001 C51.2767501,36.1800001 51.6619876,36.1800001 51.9921912,36.1251517 C56.7251094,35.7960607 58.9815005,33.5472728 58.9815005,30.2563638 C58.9815005,27.0203032 56.5600075,25.4845457 54.9089897,25.1554547 C54.5787861,25.1006063 54.3036164,24.9909093 54.3036164,24.7166668 C56.1197361,23.839091 57.4405505,22.7421213 57.4405505,20.548182 C57.4405505,18.6284851 56.4499397,17.36697 55.1291253,16.7636365 C53.8083109,16.1054547 52.0472251,15.9409093 50.2311054,15.8860608 L50.0109698,15.8860608 C47.1492052,15.8860608 45.1129499,15.9957578 43.4619319,16.1054547 C43.2417961,16.2151518 43.1867622,16.7087882 43.406898,16.8733336 L44.3975086,16.9830304 Z M48.4149857,17.8057579 C48.4149857,17.2572729 48.5250535,17.0927275 48.8552571,17.037879 C49.1304268,16.9281821 49.5706982,16.8733336 50.2861393,16.8733336 C52.5975645,16.8733336 54.8539556,18.0251518 54.8539556,20.9869698 C54.8539556,23.839091 53.1479037,24.7715153 50.0660037,24.8812124 C49.9009018,24.8812124 49.790834,24.8812124 49.6807662,24.8812124 C48.5250535,24.9360607 48.4700196,24.7715153 48.4700196,24.0036367 L48.4700196,17.8057579 L48.4149857,17.8057579 Z M48.4149857,26.5266668 C48.4149857,25.9781821 48.5250535,25.8136365 49.6257321,25.7587882 C49.790834,25.7587882 49.9559357,25.7587882 50.1760715,25.7587882 C55.0190575,25.7587882 56.2298039,28.5560608 56.2298039,30.9693941 C56.2298039,33.8215153 54.4136842,35.0830304 51.9371573,35.1927275 C51.7720556,35.1927275 51.6069537,35.1927275 51.441852,35.1927275 C50.5062751,35.1927275 49.6257321,35.0281821 49.020359,34.3151517 C48.4149857,33.6569699 48.3599518,32.0663638 48.3599518,30.9693941 L48.3599518,26.5266668 L48.4149857,26.5266668 Z M44.7277122,60.4230305 C44.7827463,60.5327273 44.8928141,60.5875759 45.0028819,60.5875759 C45.0579158,60.5875759 45.1129499,60.5875759 45.1129499,60.5327273 C45.2230177,60.3681819 45.4431533,60.148788 45.6632891,60.148788 C45.8834249,60.148788 46.2136285,60.3133334 46.8190016,60.4778788 C47.369341,60.6424244 48.139816,60.8069698 49.1304268,60.8069698 C49.5706982,60.8069698 49.9559357,60.7521213 50.3411732,60.6972727 C53.3680395,60.2036365 55.404295,57.8451515 55.404295,54.6639396 C55.404295,51.7021213 53.3130056,49.3436365 50.1760715,49.3436365 C48.8552571,49.3436365 47.7545785,49.8372729 47.0391374,50.2212123 C46.8740357,50.2212123 46.7639677,50.1115152 46.7639677,49.6727273 L46.7639677,44.5718182 C46.7639677,43.3651517 46.8190016,42.1584849 46.8740357,41.2260608 C46.8190016,41.1163638 46.7089338,41.0615152 46.598866,41.0615152 C45.5532213,41.6100002 44.2324069,41.939091 43.6270336,42.2133334 C43.5169658,42.3230305 43.5169658,42.6521213 43.6270336,42.7618184 L43.9022033,42.9263638 C44.7277122,43.4200002 44.7277122,43.5845456 44.7277122,45.1751517 L44.7277122,58.119394 C44.7827463,59.4906062 44.7277122,60.0390909 44.7277122,60.4230305 Z M46.7639677,52.5248485 C46.7639677,51.4827273 46.8190016,51.1536366 47.0941713,50.9890909 C47.1492052,50.9342426 47.2042391,50.9342426 47.2592732,50.8793941 C47.6445107,50.6600001 48.2498838,50.5503031 48.9653251,50.5503031 C51.6619876,50.5503031 53.0928698,52.7442424 53.0928698,55.4866668 C53.0928698,57.6257576 52.2673609,59.600303 50.2311054,59.929394 C50.0109698,59.9842426 49.790834,59.9842426 49.5706982,59.9842426 C48.6901554,59.9842426 47.9747143,59.6551516 47.4794088,59.1066668 C47.0391374,58.5581819 46.8190016,57.6806061 46.8190016,56.7481818 L46.8190016,52.5248485 L46.7639677,52.5248485 Z M30.8591616,50.6051516 C31.6846705,50.9342426 31.6846705,51.2084849 31.6846705,52.9087881 L31.6846705,57.4612122 C31.6846705,59.6551516 32.5652135,60.8618183 34.9867065,60.8618183 C35.5920796,60.8618183 36.142419,60.7521213 36.6927582,60.5327273 C37.5182673,60.2036365 38.2337084,59.7648486 38.7840476,59.4357576 C38.9491495,59.4357576 39.0041834,59.5454547 39.0041834,59.819697 L39.0041834,60.9166669 C39.0592173,61.0263637 39.2243192,61.0812123 39.334387,61.0812123 C40.2699639,60.5875759 41.8659478,60.3133334 42.9115925,60.0939394 C43.1317283,59.9842426 43.1317283,59.4357576 42.9666264,59.3260608 C42.5813889,59.3809091 42.2511853,59.4357576 41.9209817,59.4357576 C41.1505067,59.4357576 41.0954728,58.6130304 41.0954728,56.4739396 L41.0954728,51.9215152 C41.0954728,50.9342426 41.0954728,50.0566669 41.1505067,49.5630305 C41.1505067,49.4533334 41.0404389,49.3984851 40.9303711,49.3984851 C40.3249978,49.6727273 38.8390817,49.8372729 37.7384029,49.8921212 C37.5182673,50.0018183 37.5182673,50.3857577 37.7384029,50.4954547 L38.0686065,50.6051516 C38.8941156,50.9342426 39.0592173,50.9890909 39.0592173,52.7442424 L39.0592173,57.1869697 C39.0592173,58.0096971 38.8941156,58.448485 38.5088781,58.7775758 C38.0135726,59.2163637 37.2430976,59.4906062 36.5826904,59.5454547 C36.4726226,59.5454547 36.3625548,59.5454547 36.2524868,59.5454547 C34.1611974,59.5454547 33.720926,58.2839394 33.720926,56.419091 L33.720926,51.8666667 C33.720926,50.5503031 33.720926,49.9469698 33.7759599,49.5081819 C33.7759599,49.3984851 33.6658921,49.3436365 33.5007902,49.3436365 C32.8954171,49.5630305 31.8497724,49.7824244 30.5839919,49.8372729 C30.3638561,49.8921212 30.3638561,50.2760608 30.528958,50.4406062 L30.8591616,50.6051516 Z M17.4308822,43.4748485 C18.6416288,43.5845456 18.6966627,44.078182 18.6966627,46.3818183 L18.6966627,56.3642425 C18.6966627,59.2163637 18.6416288,59.5454547 17.0456447,59.7648486 L16.4953055,59.819697 C16.3302036,59.9842426 16.3852375,60.4230305 16.5503394,60.4778788 C17.7610858,60.4230305 18.7516966,60.4230305 19.8523752,60.4230305 C20.953054,60.4230305 21.8335968,60.4230305 23.3745468,60.4778788 C23.5396487,60.4230305 23.5946826,59.929394 23.4295809,59.819697 L22.7141398,59.7648486 C20.953054,59.600303 20.8980199,59.2163637 20.8980199,56.3642425 L20.8980199,44.297576 C20.8980199,43.4200002 20.8980199,43.3103031 22.3839362,43.3103031 C25.1906667,43.3103031 26.7866506,45.0106061 26.7866506,47.6433336 C26.7866506,50.0018183 25.7410059,51.6472727 22.7691737,52.1957577 C22.6040718,52.2506062 22.6040718,52.6345456 22.7691737,52.7442424 C23.8698523,52.7442424 25.3007345,52.5248485 26.5114809,51.9215152 C27.6671936,51.3730305 29.2081436,50.1115152 29.2081436,47.588485 C29.2081436,45.7236364 28.2725667,44.297576 27.0067864,43.5296971 C25.8510739,42.8166667 24.3101237,42.4875759 22.3289021,42.4327274 C22.1638004,42.4327274 21.9436646,42.4327274 21.7785629,42.4327274 C19.5221716,42.4327274 17.8161199,42.4327274 16.3852375,42.6521213 C16.2751697,42.8166667 16.2751697,43.2006063 16.4402716,43.3651517 L17.4308822,43.4748485 Z"/>
  </g>
</svg>
