<?xml version="1.0" encoding="UTF-8"?> <svg xmlns="http://www.w3.org/2000/svg" height="512" viewBox="0 0 512 512" width="512"><path d="m435.351181 229.850406h.377455c.314547 0 .629093-.126128.629093-.441447 0-.31532-.188728-.441448-.629093-.441448-.104605-.01013-.209941-.01013-.314546 0zm0 1.513534h-.629092v-2.774812c.374398-.058961.753756-.080088 1.132366-.063064.326539-.037324.656538.028838.943638.189192.178558.158553.271859.392378.251637.630639-.023548.314892-.25627.574109-.566183.630639.294908.1044.49506.380285.503274.693703.025657.219655.089533.433099.188728.630639h-.692002c-.121142-.193275-.206395-.40693-.251637-.630639 0-.252256-.188727-.378384-.566183-.378384h-.314546zm.503274-3.657707c-1.216034 0-2.201823.988214-2.201823 2.207237s.985789 2.207237 2.201823 2.207237c.578345.00025 1.132141-.234289 1.535124-.650144s.6208-.977577.60379-1.557093c.01701-.579516-.200807-1.141238-.60379-1.557093s-.956779-.650395-1.535124-.650144zm0-.567575c1.520058.034641 2.72769 1.291884 2.704783 2.815901-.022908 1.524016-1.267778 2.744215-2.788187 2.73293-1.52041-.011285-2.747119-1.24983-2.747512-2.774019.034205-1.542633 1.291686-2.775193 2.830916-2.774812zm-8.933111 11.856014c-1.887277-6.243326-15.916036-3.279323-12.770575 4.288346 2.327642 5.675751 15.853127 9.081202 22.332778 18.41466 10.065477 14.883082-12.204391 31.531952-29.001156 23.5859-11.889845-5.612687-11.952755-14.315506-11.134935-17.847085 1.132367-5.297368 7.045834-5.423495 7.737836-2.58562 1.069457 5.108177-1.258185 4.855921-1.132366 6.93703.943638 8.513627 14.657851 12.10827 21.955322 4.792857 9.87675-10.090225 1.258185-16.648871-.566183-17.910149-4.655283-3.342387-11.072025-4.225282-15.161125-9.774906-8.807293-11.982142 4.844011-22.45075 14.846579-19.486746 4.529465 1.387406 8.1782 4.729793 7.297471 9.081202-.692002 3.594643-3.585826 3.279323-4.403646.567575zm-110.091159 7.000094c-.629092-1.324342-.75491-.945959-1.761458-2.144173-6.54256-6.747838-13.210939-1.072086-17.488767 4.225282-7.171653 8.009115-15.664399 36.072553-6.416742 31.027441 9.625113-4.729793 17.614586-21.189472 21.703686-27.369735 4.026191-5.864943 10.757479-3.153195 9.750931 3.594643-.440365 2.648684-2.201823 12.108269-1.069457 18.162404 1.132366 6.180263 7.863654-2.964003 9.939659-5.423496.062909-1.576597-2.642188-12.612781 4.277828-25.477817 10.191295-18.856108 30.196432-12.928101 25.100784 3.531578-2.255724 7.852809-8.090163 14.169495-15.727309 17.027255-3.019643 1.072086-5.032738-2.144173-1.887277-4.729793 2.390551-1.891917 5.221467-2.964004 9.05893-10.090225 2.893825-5.423496-.377455-9.837969-5.661831-6.054135-7.674926 5.549624-11.386571 30.649058.314546 38.027535 11.134934 5.801879 19.816409-5.801879 27.680063-20.18045-4.0891-16.522743-3.208371-45.784395 8.366928-60.667476 12.078573-15.765976 29.064066-9.52265 29.315703 2.081109.503273 19.360619-18.369497 48.054695-20.382592 52.65836-1.321094 3.027068-5.787649 1.76579-3.648736-2.774812 14.469124-26.045392 15.286944-45.847458 14.78367-50.261932-.943638-8.198307-7.549108-6.30639-13.840031.693703-14.720761 20.684961-8.1782 51.460147-3.460008 69.054976 1.63564 6.243327 3.774554 10.720864 3.648736 12.612781-.377456 6.054135-5.221467 5.234304-7.612018.630639-.81782-1.639661-2.264732-5.045112-4.718192-13.747931-11.701117 18.540788-27.554244 19.802066-36.424446 13.684867-3.117394-2.333051-5.657372-5.353993-7.42329-8.828946-12.204391 11.666822-22.458596 3.783834-22.773142-8.261372-1.446913 1.702725-8.052382 11.919078-17.488767 17.468702-7.737836 4.540601-14.469124 1.891917-15.098216-5.549624-.754911-13.810995 12.707665-32.793231 17.362948-37.901407 5.032739-5.549623 10.317115-9.270394 16.859675-9.081202 6.857106.252255 9.939659 9.081202 8.933111 12.612781-.81782 3.153195-3.522917 2.774812-4.214919 1.387406zm-128.586472-27.621991c4.592374-.378383 6.605469 1.891917 6.54256 5.171241-.125819 3.279323-3.711645 7.063157-5.913468 7.882988-2.271089.921302-4.874015.069277-6.165105-2.018045-1.150087-2.167675-1.179677-4.759948-.079371-6.953436 1.100306-2.193489 3.193747-3.715556 5.615384-4.082748zm-10.380024 19.171427c1.831089-1.664168 4.534073-1.927862 6.650884-.648839s3.146598 3.798138 2.533864 6.198463c-.377455 1.702725-.125818.945959-2.45346 7.378477s-4.592374 15.387593-4.340737 23.964284c.880729 13.432612 6.54256 7.693796 7.423289 7.063157.88073-.630639 4.592374-4.603665 6.102196-14.063251 1.132366-7.189285 5.473103-24.279603 20.068045-31.468888 10.002569-4.918985 17.174221.378383 17.362949 6.937029.188728 6.306391-6.731288 4.982049-8.555656 2.837876-1.258185-1.45047-2.705097-4.162218-5.661831-2.90094-5.536012 2.270301-12.959302 14.189379-12.707665 27.495863s12.393119 10.720864 19.627681 5.234304 11.952754-18.099341 12.393119-21.126408c1.006548-17.657893 12.896393-55.307045 18.558224-61.36118 6.102195-6.62171 11.701117-.252255 10.317114 2.333365-8.807293 21.567855-22.206959 46.856481-22.332778 72.271235 5.473103-16.018232 16.041855-28.631013 26.925152-30.270674 10.065477-1.45047 11.764027 5.675751 9.436385 11.729886s-6.857107 13.117292-5.78765 27.62199c.251637 3.405451 1.069457 9.081203-.81782 10.342481-4.592374 2.900939-6.794197-2.90094-6.920015-9.774906-.125819-6.62171 4.214918-21.567855 4.844011-24.027347 2.516369-10.090225-6.794198-6.306391-9.499295-3.405451-10.505842 10.846991-14.783669 29.198588-15.916036 32.79323-1.384003 4.225282-6.794197 2.270301-7.863654-2.648684-.125818-.630639-.754911-1.954981-1.509821-10.090224-11.701118 16.96419-33.782259 23.27058-40.073182 9.459585-11.323662 13.495676-21.514958 9.837969-24.974966-4.85592-3.585826-17.657894 4.655284-34.87434 7.171653-36.955449zm-15.098216 38.658174c1.572731 6.180263 2.579279 9.648778.629092 10.720864-3.585826 2.081109-8.304018-7.189285-9.373475-14.504698-3.648736-25.225562 3.711644-47.045673 5.913468-56.126876 4.277827-17.657893-5.661831-25.982328-17.740404-.630639-8.996021 19.0453-9.247658 30.901314-13.399667 49.25291-3.145462 13.684867-13.210939 12.928101-14.78367 3.216259-2.893825-19.045299-.629092-67.982889-10.568751-67.982889-9.436385.063064-11.4494804 49.315973-10.6945696 76.811836.3145461 9.144266-2.8938248 10.027161-5.0327387 10.090225-6.9200157.315319-5.5360125-40.297835-12.2043913-50.451124-.5032738-.756767-.9436385-1.891917-1.3210939-2.522556-3.5858263-5.045113 1.7614586-5.360432 5.1585572-1.576598 6.8571064 7.567669 5.9134679 22.513814 5.9134679 29.829227-.1258185-35.757234 1.1323662-73.343321 20.5713194-71.892852 5.347285.441448 10.757479 1.891918 13.588394 26.991352 1.887277 17.027254 1.572731 40.360899 2.138914 44.460053 1.258185-8.828947 10.820388-72.145108 36.738992-71.136085 10.505842.378383 11.952755 10.34248 11.952755 15.135337 0 10.405544-4.844011 19.802066-7.045834 36.829321-1.258185 9.459585-2.51637 25.603945-.503274 33.423869zm257.191354 30.599995h1.824243v.379881h-.691954v1.899406h-.440335v-1.899406h-.691954zm4.214632 0h.440335v2.279287h-.440335v-1.646152l-.75486 1.139643-.691954-1.076329v1.582838h-.440335v-2.279287h.50324l.691954 1.07633zm-9.058314 10.383417v-10.383417h2.516198v15.068617h-2.138769l-7.98893-10.636671v10.573358h-2.516198v-15.005304h2.327484zm-14.468141-10.383417.12581 2.405914h-8.177645v3.925438h7.23407v2.279286h-7.35988v4.052066h8.303455v2.3426h-10.819654v-15.005304zm-16.60691 5.065081v.063314c0-1.836092-1.258099-2.722481-3.145248-2.722481h-2.956533v5.381649h2.956533c1.887149 0 3.145248-1.07633 3.145248-2.722482zm2.579104 0v-.126627c0 3.41893-2.642009 5.191709-5.787257 5.191709h-2.893628v4.875141h-2.516198v-15.005304h5.661446c3.396868 0 5.535637 1.962719 5.535637 5.065081zm-17.550484-.063313c0-1.772779-1.2581-2.659168-3.145248-2.659168h-2.956533v5.381649h2.956533c1.887148 0 3.145248-1.07633 3.145248-2.722481zm2.579103 0c0 3.41893-2.642008 5.128395-5.787256 5.128395h-2.893628v4.811827h-2.516199v-15.005304h5.724351c3.333963 0 5.472732 1.899406 5.472732 5.065082zm-19.123108 4.052065-2.516198-6.014784-2.516199 6.014784zm-1.258099-9.117147 6.416306 15.131931h-2.704913l-1.38391-3.672184h-6.919545l-1.509719 3.608871h-2.579104l6.290496-15.068618zm-13.272947 8.800579-6.919545-.063313v6.331352h-2.516199v-15.005304h2.516199v6.268038h6.919545v-6.268038h2.516199v15.068617h-2.516199zm-26.420083.316568.062905 5.951471h-2.516198v-5.888157l-5.787257-9.117147h3.019438l4.088823 6.647919 4.088822-6.647919h2.893628zm-15.223-6.584606-.12581 12.536077h-2.516199v-12.536077h-4.592062v-2.469227h11.826133v2.469227zm-14.090712 12.536077v-15.005304h2.516199v15.005304zm-11.322892-3.482244 4.403347-11.52306h2.704913l-5.975971 15.131931h-2.264579l-6.038876-15.131931h2.830723zm-13.461662 3.482244v-15.005304h2.516199v15.005304zm-8.995409-12.472763v12.472763h-2.579104v-12.536077h-4.592062v-2.469227h11.763228v2.532541zm-11.511608 6.584606-2.516198-6.014785-2.516199 6.014785zm-1.258099-9.117147 6.353401 15.068617h-2.704913l-1.446815-3.60887h-6.85664l-1.509719 3.60887h-2.579104l6.353401-15.068617zm-11.700323.063314v2.3426h-8.177645v3.925438h7.234071v2.279286h-7.234071v4.052066h8.303455v2.405913h-10.819653v-15.005303zm-17.173054 4.938454c0-1.709465-1.069384-2.532541-2.956533-2.532541h-3.774298v5.065082h3.774298c1.824244 0 2.956533-1.013017 2.956533-2.532541zm3.019438 10.130163h-3.019438l-3.585583-5.255022h-3.145248v5.255022h-2.516198v-15.068617h6.479211c3.333963 0 5.346921 1.836092 5.346921 4.811827.111056 2.167115-1.353235 4.096455-3.459772 4.558573zm-15.60043-2.532541c-1.416162 1.69704-3.52316 2.652512-5.724351 2.595854-4.151728 0-7.234071-3.41893-7.234071-7.597622s3.019438-7.660936 7.296976-7.660936c2.115426-.073369 4.158263.781417 5.598541 2.342601l-1.635529 1.899405c-1.019984-1.12621-2.44968-1.788598-3.963012-1.836092-2.704914 0-4.717872 2.279287-4.717872 5.191709 0 2.912421 2.012958 5.255022 4.717872 5.255022 1.761338 0 2.830723-.696449 4.088822-1.899406zm-39.126885 2.532541-.062905-15.131931h13.084231v4.178692h-8.051834v1.519525h7.48569v3.672184h-7.48569v1.582838h8.177644v4.178692zm-17.173054 0v-15.131931h5.032396v5.698217l4.403348-5.698217h5.975971l-5.346922 6.584606 5.409827 8.547325h-6.101781l-2.956534-4.811828-1.383909 1.646152v3.165676zm-12.266468-5.634903h2.767819l-1.38391-3.672184zm-7.548595 5.634903 6.479211-15.195245h5.032397l6.479211 15.195245h-5.598542l-.817764-2.026033h-5.346922l-.754859 2.026033zm-19.0602029 0v-15.131931h5.3469219l3.271058 5.318335 3.271058-5.318335h5.284016v15.068617h-5.032397v-7.470995l-3.522677 5.381649h-.062905l-3.522678-5.381649v7.534309z" fill="#d30e2c"></path></svg> 