<?xml version="1.0" encoding="UTF-8"?> <svg xmlns="http://www.w3.org/2000/svg" height="512" viewBox="0 0 512 512" width="512"><g fill="none" transform="translate(31 192)"><path d="m96.66 24.5370629c-.09-.6314685-.63-.9923077-1.08-.9923077s-10.08-.7216783-10.08-.7216783-6.66-6.6755245-7.47-7.3972028c-.72-.7216783-2.16-.5412587-2.7-.3608391-.09 0-1.44.4510489-3.78 1.1727272-2.25-6.58531465-6.21-12.5391608-13.14-12.5391608-.18 0-.36 0-.63 0-1.89-2.52587413-4.41-3.6986014-6.48-3.6986014-16.2 0-23.94 20.2972028-26.37 30.5811189-6.3 1.9846154-10.8 3.3377622-11.34 3.5181818-3.51 1.0825175-3.6 1.1727273-4.05 4.5104895-.36 2.5258741-9.54 73.7916088-9.54 73.7916088l71.55 13.441258 38.79-8.38951c0-.09021-13.59-92.2846155-13.68-92.9160841zm-29.07-7.2167832c-1.8.5412588-3.87 1.1727273-6.03 1.8944056 0-.4510489 0-.8118881 0-1.3531468 0-3.9692308-.54-7.2167833-1.44-9.83286717 3.6.54125874 5.94 4.60069927 7.47 9.29160837zm-11.97-8.38951047c.99 2.52587417 1.62 6.04405597 1.62 10.91538457v.7216784c-3.96 1.262937-8.19 2.5258741-12.51 3.8790209 2.43-9.2916083 7.02-13.8020979 10.89-15.51608387zm-4.77-4.6006993c.72 0 1.44.27062937 2.07.72167832-5.22 2.43566434-10.71 8.56993005-13.05 20.92867135-3.42 1.0825175-6.75 2.0748252-9.9 3.0671328 2.7-9.3818181 9.27-24.71748247 20.88-24.71748247z" fill="#95bf47"></path><path d="m95.58 23.4545455c-.45 0-10.08-.7216784-10.08-.7216784s-6.66-6.6755244-7.47-7.3972028c-.27-.2706293-.63-.4510489-.99-.4510489l-5.4 110.9580416 38.79-8.38951s-13.59-92.2846155-13.68-92.9160841c-.18-.6314685-.72-.9923077-1.17-1.0825174z" fill="#5e8e3e"></path><path d="m58.41 44.9244755-4.77 14.2531469s-4.23-2.2552448-9.36-2.2552448c-7.56 0-7.92 4.7811189-7.92 5.9538462 0 6.4951049 16.92 9.020979 16.92 24.2664335 0 11.9979021-7.56 19.7559437-17.82 19.7559437-12.33 0-18.54-7.6678318-18.54-7.6678318l3.33-10.9153846s6.48 5.593007 11.88 5.593007c3.6 0 5.04-2.7965035 5.04-4.8713287 0-8.4797202-13.86-8.8405594-13.86-22.8230769 0-11.7272727 8.37-23.0937063 25.38-23.0937063 6.48-.0902098 9.72 1.8041958 9.72 1.8041958z" fill="#fff"></path><path d="m155.61 71.7167832c5.94 3.427972 10.89 8.0286713 10.98 14.7041958 0 12.1783217-9.9 18.944056-23.58 18.944056-9.45 0-15.03-3.788811-15.03-3.788811l3.78-10.825175s6.12 3.3377622 12.51 3.3377622c4.32 0 6.66-2.3454546 6.66-5.2321678 0-2.7965035-1.62-4.6909091-6.3-7.3069931-5.76-3.3377622-10.08-7.9384615-10.08-14.0727272 0-10.7349651 9.27-18.4027972 22.59-18.4027972 9.54 0 12.78 2.5258741 12.78 2.5258741l-3.51 10.8251748s-4.5-2.0748251-9.54-2.0748251c-4.32 0-7.11 1.9846153-7.11 5.0517482 0 2.4356643 1.98 4.2398601 5.85 6.3146853zm54.54-22.8230769c8.01 0 12.51 5.141958 12.42 13.8923077 0 2.7062937-.45 6.6755245-1.08 10.0132867l-5.94 31.5734263h-15.21l5.76-30.5811186c.45-2.0748252.63-4.6909091.63-6.7657343 0-3.3377622-1.35-5.6832168-4.77-5.6832168-4.86 0-10.08 6.2244756-12.06 16.3279721l-5.04 26.7020976h-15.21l14.85-78.121678h15.21l-5.85 30.6713286.18.0902098c4.05-4.8713287 9.36-8.1188811 16.11-8.1188811zm46.98 0c14.31 0 20.7 10.3741259 20.61 21.3797203 0 18.9440559-12.15 35.0916084-30.15 35.0916084-13.68 0-20.97-9.5622378-20.97-21.3797203 0-18.493007 12.15-35.0916084 30.51-35.0916084zm-7.47 44.7440559c8.01 0 12.6-14.4335664 12.6-23.8153846 0-4.5104895-1.8-9.2013986-7.2-9.2013986-8.28 0-12.78 14.2531469-12.78 23.0034965 0 5.593007 2.16 10.0132867 7.38 10.0132867zm67.14-44.7440559c11.16 0 15.75 9.2013986 15.75 19.4853147 0 18.5832168-11.7 36.986014-29.61 36.986014-5.76 0-8.91-1.984615-8.91-1.984615h-.36l-4.23 22.642657h-15.21l10.62-55.93007c1.17-6.3146853 2.43-14.7944056 3.06-20.2972028h13.5l-.9 8.2090909h.18s5.85-9.1111888 16.11-9.1111888zm-14.58 44.9244755c8.55 0 14.4-14.0727273 14.4-23.9958042 0-4.0594405-1.44-8.3895105-6.12-8.3895105-5.31 0-10.26 6.3146853-12.06 15.8769231l-2.52 14.2531469s2.34 2.2552447 6.3 2.2552447zm52.11-66.8454545c4.59 0 7.56 3.1573426 7.56 7.6678321-.09 5.593007-4.14 8.8405595-8.91 8.8405595h-.18c-4.32 0-7.2-3.1573427-7.2-7.6678322 0-4.9615384 3.87-8.8405594 8.73-8.8405594zm-21.33 77.3097897 10.26-54.2160834h15.3l-10.35 54.2160834zm64.35-54.3062932-2.16 11.5468531h-10.53l-8.1 42.7594401h-15.21l8.1-42.7594401h-7.11l2.25-11.5468531h7.11l.45-2.5258741c1.17-6.4951049 3.6-12.9 8.82-17.3202798 4.14-3.5181818 9.54-5.0517482 14.94-5.0517482 5.67 0 8.28 1.3531468 8.28 1.3531468l-2.97 11.9979021s-2.16-.8118881-4.86-.8118881c-5.13 0-8.19 4.6006993-9.09 9.8328672l-.54 2.5258741zm36.72.0902098h15.93l-18.63 40.1433566c-6.57 13.7118878-13.05 23.8153848-19.98 30.3104898-5.4 5.051748-11.88 7.667832-14.94 8.2993l-4.23-12.990209c2.52-.902098 5.76-2.255245 8.64-4.33007 3.51-2.435665 6.48-5.773427 8.28-9.201399.45-.721678.54-1.443357.36-2.525874l-9.18-49.7055944h16.02s3.51 33.0167832 3.78 37.2566433h.18c4.23-13.1706293 13.77-37.2566433 13.77-37.2566433z" fill="#000"></path></g></svg> 