<?xml version="1.0" encoding="UTF-8"?> <svg xmlns="http://www.w3.org/2000/svg" height="512" viewBox="0 0 512 512" width="512"><g fill="none" transform="translate(85 179)"><path d="m140.94907 55.6453333c-44.191163-20.5105185-85.8981398-30.2866666-131.25162814-44.8653333-5.46976744-1.79096296-9.53790698 2.6122963-9.11627907 9.8674074 2.19930233 38.3288889 4.42139535 75.1177778 7.00813954 110.3780736.52418604 6.673334 4.07953487 11.74963 7.97674417 11.498667 32.3627907-1.882222 59.9509302-.433481 92.5530235-6.410963 3.908604-.775704 8.193256-4.893778 9.65186-8.966222 7.276244-21.247505 16.916521-41.608407 28.73907-60.6988149 2.199302-3.3537777-.216512-8.2703703-5.56093-10.8028148zm-52.1793026 3.2853334c.7136042-.4955596 1.6339263-.5820663 2.4272093-.2281482 1.1395349.6616296 0 2.2814815 0 2.2814815s-1.2648837 1.9164444-2.3132558 2.0647407c-.8546511.1026667-1.9372093-.2851851-2.0055814-1.3004444.2191519-1.1586273.9027457-2.1768583 1.8916279-2.8176296zm-4.5581395 24.8225185s1.0255814-12.0234074 1.2534884-13.1413333c.2506977-1.4601482.6039535-1.733926.6039535-1.733926s1.504186-1.8137778 2.7348837-1.5057778.9458139 1.8251852.9458139 1.8251852l-.6837209 8.0878519c-.0270744 1.9068061-.1564078 3.8107815-.3874418 5.7037037-.6368497.9295325-1.5747074 1.610501-2.6551163 1.9278518-.3913483.1567721-.8279541.1567721-1.2193024 0-.4438906-.2077176-.7054383-.6762456-.6495348-1.1635555zm-21.0586046-4.7112593c.3671334-.1358794.7732408-.1195717 1.1283223.0453091.3550816.1648808.6298116.4647174.7633056.8330613.537689.8587275.3241696 1.9871039-.49 2.5894815l-1.5953489 1.2205926c-.6370086.6046475-1.2098248 1.2736402-1.7093023 1.9962963-.4976489.8300765-.7578221 1.7811081-.752093 2.7491852-.2165117 1.5285925-.3646512 6.3425185-.3646512 6.3425185s.3304651.6616296-.3988372 1.9962963c-.5615948.9658387-1.4641014 1.6861662-2.5297674 2.0191111 0 0-1.0141861.2965926-1.4927907-.2281482-.2986493-.3811943-.4807027-.8407713-.5241861-1.3232592l.7862791-13.2896297c.1123736-1.1205947.6710202-2.1486054 1.5497674-2.8518518.9601281-.4953087 2.0107414-.7902574 3.0881396-.866963zm-25.0697675 39.1388151s-.3874418 2.076148-2.1195349 2.076148c-.8937769.04388-1.7061525-.516971-1.9827907-1.368889l-5.4925581-32.8875556s-.1481395-1.1407407-.8318605-.6045925c-.3874418.6616296-3.5325581 8.7608888-3.5325581 8.7608888-.5259116.8595804-1.5879517 1.2235464-2.5297675.866963-.8550514-.2490554-1.3790077-1.1100447-1.2079069-1.9848889l6.3927907-18.7423704c.4865054-.9794107 1.5206655-1.562589 2.6095349-1.4715555 1.7206976.2623704 2.0625581 2.464 2.0625581 2.464l4.1934884 25.2560001s.1025581.444889.296279.444889c.193721 0 .2734884-.695852.2734884-.695852s1.9372093-13.688889 4.375814-23.3281482c.5697674-2.2814815 2.7918604-10.6088889 5.0253488-16.9285926 2.94-8.5555556 6.2104651-16.0388148 6.2104651-16.0388148s2.187907-4.1637037 5.8116279-1.9848889c.912616.6030714 1.5078429 1.5832454 1.6225478 2.6718875.114705 1.088642-.2631437 2.1715614-1.0299896 2.9519643-1.7555628 1.7919982-3.2862436 3.7916505-4.5581396 5.9546667-3.1565116 5.8634074-6.3130232 17.1339259-8.2388372 23.7045926-2.3549636 8.784586-4.1401592 17.7123885-5.3444186 26.7275554-.4444186 3.091408-1.9713953 14.156593-1.9713953 14.156593zm12.9337209-39.4696299c-.3190697.0912593-.6723255.2737778-1.4472093-.4220741-.7748837-.6958518-.1709302-1.7909629.2620931-2.578074.5819156-.6870854 1.2800834-1.2662897 2.0625581-1.7111111 0 0 1.3218605-.6045926 1.697907-.1597038.2373572.3202056.3972846.6911614.4672093 1.0837038.1080185.5330147-.0301708 1.0863566-.3760465 1.5057777-.7720483.8874989-1.6705385 1.6562519-2.6665117 2.2814815zm-.558372 22.5068149c-.0156828.435031-.2044098.845741-.5241861 1.140741-.6111078.522672-1.2543038 1.006532-1.9258139 1.44874-.4098597.182534-.8778148.182534-1.2876745 0-.3717442-.263248-.5993498-.685186-.6153488-1.14074 0 0 .6153488-12.5481485.8090698-13.8828151.117921-.7996589.3764104-1.5720856.7634883-2.2814815 0 0 1.6409303-2.1217778 3.3274419-2.0077037.8090698.1254814.9686046 1.1407407.9572093 1.2205926.455814 1.4829629-1.504186 15.5140737-1.504186 15.5140737zm65.2839533-23.6475556c-1.408629.6195414-2.8595 1.1379857-4.341628 1.5514074-.866046.1482963-9.116279 4.2549629-13.1844184 6.4109629-6.3382582 3.4205939-12.4545257 7.2382574-18.3123256 11.4302223 0 0-.3532558 17.111111-.3646511 18.514222 0 4.950815 1.6751163 8.441482 1.504186 10.369334.0583876.909237-.326022 1.790618-1.0318489 2.365842-.705827.575223-1.6459428.773283-2.5234999.531639-2.5183721-.399259-2.2790698-4.403259-2.2790698-4.403259l.3190698-12.913185s0-6.102963 0-11.316149c-6.4859781 4.461841-12.6230325 9.411764-18.357907 14.806815-2.5753488 2.623704-9.7430232 10.928297-11.1560465 11.167852-1.0452454.365245-2.2067731.114195-3.0083721-.650222-.5994484-.762146-.7631926-1.78016-.4330232-2.692148 1.6181395-3.182667 13.8225581-12.913185 15.7369767-14.635704 1.4586047-1.311852 10.9281395-8.3502222 17.1955814-12.8447407 0-1.3118519 0-2.2016297 0-2.3613334 0-.7528889-.455814-.2965926-.455814-.2965926l-1.6637209.9354074c-1.4804406.7021458-3.16578.8400357-4.7404651.3878519-1.4244186-.616-1.8802326-2.5780741-1.9713954-3.2397037-.0911627-.6616296-.0911627-3.9925926-.0911627-3.9925926-.0073752-2.6742525.4914196-5.3256944 1.47-7.8140741.9307755-2.3610308 2.8520603-4.1925634 5.2532558-5.0078518.3646987-.1830271.7993138-.1569226 1.1395349.0684444.411152.4429569.5228295 1.0869.2848837 1.6426667-.0911628.8441481-1.207907 1.8023704-1.207907 1.8023704-.5388812.7358774-.9973199 1.5275209-1.3674419 2.3613333-.5580884 2.2905653-.9390607 4.6207693-1.1395348 6.9699259-.0881865.7867837.0627262 1.5819018.4330232 2.2814815 0 0 .3646512.8327407 1.7662791.3878518.8476674-.1729294 1.5554922-.7534476 1.8916279-1.5514074.216599-.4582509.3625966-.9467068.4330232-1.4487407l1.1395349-12.9017778c.2643862-1.0871858 1.1704723-1.8989911 2.2790698-2.0419259 1.7206977-.1825185 2.0739535.9011852 2.1081395 1.1407407.2506977 1.6084445-.8432558 12.3085926-1.0027907 13.9512593-.0797674.7871111-.1367442 3.3081481-.1709302 5.7037037l.1253488-.0912593c4.3074419-2.8518518 18.7567442-11.1564444 18.7567442-11.1564444l5.4697673-3.2054815c-.779112-.4196163-1.284133-1.2146772-1.333256-2.098963 0-1.4259259.364652-9.5822222.364652-9.5822222.056758-.4715529-.143295-.9373873-.524187-1.2205926-.364189-.2928638-.870046-.3335561-1.276279-.1026666-1.005892.7295865-1.9003123 1.6018964-2.6551159 2.5894814-.6872443 1.7362794-1.1060859 3.5672844-1.242093 5.429926-.069251 1.7002118-.0350015 3.4030676.1025581 5.0991111-.0724936.5798676-.2878685 1.1325946-.6267442 1.6084444-.5569351.5026534-1.2075096.8903099-1.9144186 1.1407408-.5068796.2990232-1.1272388.3330515-1.6637209.0912592-.4925592-.3226607-.7580063-.8984048-.6837209-1.4829629l.6495349-12.0462223c.0953229-.9188972.4467508-1.7924676 1.014186-2.521037.7647213-.7088988 1.7613417-1.1144577 2.8032558-1.1407407.9088533.1046157 1.8292954.0349287 2.712093-.2053334.3574027-.1827905.6720017-.4394021.9230237-.7528889.812555-.9269777 1.785303-1.6998168 2.871628-2.2814814.746288-.4978404 1.700093-.5629414 2.506976-.1711111.726762.3191412 1.220863 1.0107401 1.287675 1.8023703.376046 5.3728889-.068372 10.4948148 0 11.2591111-.021795.7520635.349626 1.4611041.98 1.8708148.695116.4334815 1.789069-.2965925 1.789069-.2965925l4.466977-2.2244445c1.173418-.3560059 2.447428-.0556656 3.338837.7871111 1.162326 1.8822222-.911628 3.5591111-2.393023 4.2321482z" fill="#e4e2e0"></path><path d="m55.9853488 83.9813333c.1094103-1.1246809.6683394-2.1573254 1.5497675-2.8632592.960128-.4953087 2.0107413-.7902574 3.0881395-.866963l2.5411628-1.2205926c.3671334-.1358794.7732408-.1195717 1.1283224.0453091.3550815.1648808.6298116.4647174.7633055.8330613.537689.8587275.3241696 1.9871039-.49 2.5894815l-1.5953488 1.2205926c-.6370087.6046474-1.2098249 1.2736402-1.7093024 1.9962963-.4976489.8300765-.7578221 1.7811081-.752093 2.7491851-.2165116 1.5285926-.3646511 6.3425186-.3646511 6.3425186s.3190697.6616296-.3988372 1.9962963c-.5615949.9658387-1.4641014 1.6861662-2.5297675 2.0191111 0 0-1.014186.2965926-1.4927907-.2281482-.2986493-.3811943-.4807027-.8407713-.524186-1.3232592zm32.8983721-20.9325926c-.8774418.1026667-1.96-.308-1.9713953-1.3004444.2218948-1.1605578.909825-2.1791122 1.9030232-2.8176296.7136042-.4955596 1.6339263-.5820663 2.4272093-.2281482 1.1395349.6502222 0 2.2814815 0 2.2814815s-1.2876744 1.9164444-2.3588372 2.0647407zm-35.2002325 13.3808889c-.7744918.8753695-1.6728594 1.6324878-2.6665117 2.2472593-.3076744.1026667-.6723255.250963-1.4472093-.4220741-.7748837-.673037-.1709302-1.7909629.2620931-2.5780741.5819156-.6870853 1.2800834-1.2662897 2.0625581-1.7111111 0 0 1.3332558-.6045926 1.697907-.1597037.2373572.3202056.3972846.6911613.4672093 1.0837037.1190101.5439233-.0197977 1.1123741-.3760465 1.54zm61.0790696-3.9127407c1.16534-.3679421 2.438249-.0852572 3.338837.7414815 1.196512 1.9164444-.877442 3.5933333-2.358837 4.312-1.407408.6350754-2.858304 1.1687772-4.341628 1.597037-.866046.1482963-9.13907 4.254963-13.1844184 6.3881482-6.3235808 3.4333238-12.424601 7.2624029-18.2667442 11.4644444 0 0-.3646511 17.111111-.3646511 18.514222.0455814 4.950815 1.6751163 8.441482 1.504186 10.369334.0156306.876615-.3772686 1.710559-1.0629155 2.25608s-1.585896.740444-2.4354566.527327c-2.5753488-.387852-2.3816279-4.346222-2.3816279-4.346222l.2962791-12.867556v-11.316148c-6.4718105 4.441346-12.5973319 9.368304-18.3237209 14.73837-2.5753489 2.612297-9.7430233 10.916889-11.1560465 11.167852-1.0452455.365245-2.2067731.114195-3.0083721-.650222-.5994484-.762146-.7631927-1.78016-.4330233-2.692148 1.6181395-3.228296 13.8225581-12.913185 15.7369767-14.635704 1.4472094-1.311852 10.9281396-8.350222 17.1955814-12.8447406v-2.3613333c0-.7528889-.4558139-.2965926-.4558139-.2965926l-1.6751163.9582222c-1.4776021.7097416-3.1630319.8557504-4.7404651.4106667-1.4244186-.6274074-1.8802326-2.5666667-1.9713954-3.2397037-.0911627-.673037-.0911627-4.0154074-.0911627-4.0154074.0091252-2.6404536.511564-5.2559005 1.4813953-7.7114074.9307756-2.3610308 2.8520603-4.1925635 5.2532558-5.0078519.3646988-.183027.7993139-.1569225 1.1395349.0684445.4111521.4429568.5228296 1.0868999.2848837 1.6426666-.0683721.8441482-1.207907 1.8023704-1.207907 1.8023704-.5388812.7358775-.9973198 1.527521-1.3674418 2.3613334-.5580885 2.2905653-.9390608 4.6207692-1.1395349 6.9699259-.0881865.7867837.0627263 1.5819018.4330233 2.2814815 0 0 .3646511.8441481 1.766279.3878518.8662486-.1967782 1.5739813-.8193832 1.8802326-1.6540741.2481522-.4792268.4174585-.9953872.5013953-1.5285926l1.1395349-12.9017777c.2643861-1.0871859 1.1704723-1.8989912 2.2790698-2.041926 1.7093023-.1597037 2.1081395.9125926 2.1081395 1.1407408.2506977 1.6084444-.8318604 12.3085926-1.0027907 13.9512592-.0797674.809926-.1709302 3.3195556-.1709302 5.7037037l.1253488-.0912592c4.2390698-2.772 18.6883721-11.0765926 18.6883721-11.0765926l5.4811633-3.1484445c-.779113-.4196163-1.284134-1.2146772-1.333256-2.0989629 0-1.4259259.364651-9.5822222.364651-9.5822222.061938-.4672176-.129047-.9321492-.501395-1.2205926-.36419-.2928639-.870047-.3335561-1.27628-.1026667-1.005892.7295865-1.9003123 1.6018964-2.6551158 2.5894815-.6872444 1.7362793-1.1060859 3.5672843-1.2420931 5.4299259-.0692509 1.7002119-.0350015 3.4030677.1025582 5.0991111-.0724937.5798677-.2878685 1.1325946-.6267442 1.6084445-.5569352.5026534-1.2075097.8903099-1.9144186 1.1407407-.5068797.2990232-1.1272389.3330515-1.6637209.0912593-.4925592-.3226607-.7580064-.8984048-.683721-1.482963l.6153489-12.1032593c.0824068-.9284719.426173-1.8145078.9913953-2.5552592.7647214-.7088988 1.7613417-1.1144578 2.8032558-1.1407408.9088533.1046157 1.8292954.0349288 2.7120931-.2053333.3574023-.1827905.6720013-.4394021.9230233-.7528889.812556-.9269777 1.785304-1.6998168 2.871628-2.2814815.746288-.4978403 1.700093-.5629413 2.506977-.1711111.726761.3191413 1.220863 1.0107402 1.287674 1.8023704.376046 5.3614815-.068372 10.4834074 0 11.2591111-.021795.7520635.349626 1.4611041.98 1.8708148.649535.4334815 1.78907-.2965926 1.78907-.2965926zm-63.7569766 11.8979259c.8090698.1711111.98 1.1407408.9572093 1.2776296.455814 1.5057778-1.4472093 15.6281486-1.4472093 15.6281486-.0156827.43503-.2044097.845741-.5241861 1.14074-.6139814.487498-1.2571152.937026-1.9258139 1.346074-.4259753.199903-.9186759.199903-1.3446512 0-.4094724-.262178-.6615788-.711316-.6723255-1.197777 0 0 .6723255-12.4911115.8660465-13.90563.117921-.7996589.3764104-1.5720855.7634883-2.2814815 0 0 1.6295349-2.1331852 3.3274419-2.0077037zm2.712093-30.8c-3.202093 5.8405926-6.3586046 17.1111111-8.2616279 23.6817778-2.3549636 8.784586-4.1401592 17.7123885-5.3444186 26.7275554-.4558139 3.091408-1.9827907 14.156593-1.9827907 14.156593s-.3874419 2.076148-2.1195349 2.076148c-.8937769.04388-1.7061525-.516971-1.9827907-1.368889l-5.4811628-32.8761481s-.1481395-1.1407408-.8318604-.6045926c-.3874419.6616296-3.5325582 8.7608888-3.5325582 8.7608888-.5259115.8595804-1.5879516 1.2235464-2.5297674.866963-.8642222-.2395263-1.3997979-1.1033113-1.2306977-1.9848889l6.37-18.7537778c.4865055-.9794107 1.5206656-1.562589 2.6095349-1.4715555 1.7206977.2623704 2.0625581 2.464 2.0625581 2.464l4.1934884 25.2560001s.1025582.444889.2962791.444889.2734884-.695852.2734884-.695852 1.9372093-13.5976297 4.3302325-23.3167408c.5811628-2.2358519 2.7462791-10.6088889 5.0253488-16.9285926 2.9741861-8.5555556 6.2902326-16.0274074 6.2902326-16.0274074s2.187907-4.1637037 5.8116279-1.9848889c.912616.6030714 1.5078429 1.5832454 1.6225478 2.6718875.114705 1.088642-.2631437 2.1715614-1.0299896 2.9519643-1.7555628 1.7919982-3.2862436 3.7916505-4.5581396 5.9546667zm31.0409303 31.3817778c-.4305568-.2182736-.6770643-.6843915-.6153489-1.1635556 0 0 1.0825582-12.0005926 1.2762791-13.1413333.2506977-1.4601481.6039535-1.7339259.6039535-1.7339259s1.6295349-1.6654815 2.7348837-1.5057778.9458139 1.8251852.9458139 1.8251852l-.6837209 8.0878518c-.0270744 1.9068062-.1564078 3.8107816-.3874418 5.7037037-.6368497.9295325-1.5747073 1.6105011-2.6551163 1.9278519-.3913483.1567721-.8279541.1567721-1.2193023 0z" fill="#ac162c"></path><path d="m290.22814 39.0475556c.250697 2.0305185-25.787675 25.0962963-40.590233 49.5651851-9.640465 15.9703703-19.896279 32.1460743-22.585581 50.4777783-.205117 1.403111-1.253489 1.425925-2.552559.308-9.640465-8.224741-6.597907-17.111112 3.589535-31.883704 10.198838-15.2174817 60.919535-78.2434076 62.138838-68.4672594zm-34.117675-25.8263704c-7.532325-15.97037039-37.604651-17.55600001-67.084418-3.60474076-12.158838 5.74933336-18.825117 9.77614816-26.072559 17.76133336 0 0-3.806046 5.0420741.478605 7.3577778s6.495349 3.1712592 7.634884 1.7453333c6.142093-7.7114074 12.284186-14.9779259 24.374651-20.7044445 24.192325-11.40740736 48.566977-10.62029625 54.435581 1.8137778 5.868605 12.4340741-8.979535 31.7924445-33.183256 43.2340741-5.645865 2.6916999-11.558217 4.7830947-17.64 6.2398518-6.951162 2.0077038-16.83093 3.2397038-27.759069 3.0685926 5.697674-10.7115555 11.851163-20.4192592 16.226976-27.3207407 5.811628-9.1259259 6.620698-10.5860741 6.17628-11.9435556-.268461-1.1160097-1.216935-1.9370554-2.358838-2.0419259-1.686511-.1368889-5.697674-.4448889-26.744883 37.1425185l-2.085349 3.7302223c-13.833954-1.1407408-28.488372-4.562963-40.49907-11.4074074l-.205116-.0684445c-.330465.057037-1.219303.3878519-1.321861 1.1407407-.102558.7528889.774884 1.1407408 1.025582 1.3004445 11.576888 7.2009066 24.293195 12.3776774 37.604651 15.3087407-9.116279 16.7917037-17.093023 32.8419257-20.010233 39.7548147-7.84 17.943852-9.606279 29.077482 3.418605 36.503704.65621.397505 1.39126.646674 2.153721.730074.775536.083086 1.548904-.174976 2.119535-.707259.62061-.638834.925417-1.520786.83186-2.406963-.866046-18.628297 5.891396-36.914371 12.42093-54.6072596l.945814-2.5666666c1.924234-5.1454929 4.107335-10.1902151 6.540931-15.1148148 11.395348 1.6426666 21.24093 1.2776296 27.667907-.0684445 7.539522-1.6961178 14.866471-4.2290199 21.844883-7.5517037 29.582326-14.168 46.572791-40.7814815 39.063256-56.7176296zm8.717442 86.5708148c1.071163-3.4906667 6.620698-9.6164444 10.255814-12.5481481 4.102326-3.1940741 10.176046-3.9697778 12.07907-3.1370371 2.632325 1.2091852 2.119535 2.3385185 2.073953 3.1028148 0 3.2282963-4.991163 7.6315556-7.486744 10.414963-.808951.7487478-1.071936 1.9198192-.66093 2.9431114.900232 1.403111 4.318837 1.425926 5.811628 1.289037 3.475581-.285185 7.076511-4.6770373 9.503721-7.7228151 2.427209-3.0457778 2.928604-7.4262222 1.823255-10.0271111-2.005581-4.7340741-7.247441-5.9432592-11.543488-6.1029629-8.421163-.2281482-16.135814 3.8899259-23.668139 12.2287407-3.806047 4.2321481-8.592094 12.4454814-7.81721 16.6320004.774884 4.186518 5.355814 4.83674 7.976744 5.429926 4.55814.992444 9.765814 1.437333 10.666047 6.262666.535581 3.216889-1.253488 7.392-4.318837 10.608889-5.036744 5.224593-13.412326 7.985185-17.833721 7.722815-2.563954-.159704-5.150698-1.140741-6.096512-3.422222-.642581-1.951056-.075158-4.097916 1.447209-5.475556 4.432791-5.236 11.395349-4.106667 16.010466-4.562963 1.219302 0 2.700697-1.597037 1.071162-3.775852-1.367442-1.984889-7.475348-1.323259-9.686046-1.003852-5.207675 1.026667-12.07907 3.981186-15.19 8.566963-1.723193 2.586257-1.820531 5.930279-.250698 8.612593 4.033954 6.73037 13.40093 7.802667 19.372093 7.220889 8.193256-.901185 17.275349-4.437482 23.474419-13.939852 2.96279-4.505926 4.489767-11.555704 2.404418-15.75363-2.974186-6.262666-10.472325-6.16-14.266976-6.924296-2.620931-.342222-6.324419-2.623704-5.150698-6.639111zm76.109535 16.198519c-.533253-.017721-1.053745.165458-1.458605.513333-11.851163 11.145037-16.48907 14.110963-24.864651 15.023555-3.304651.308-6.518139-.558963-8.50093-2.931703-.957209-1.140741-1.139535-3.273926-.774884-5.133334.342482-1.704749 1.18335-3.269148 2.415814-4.494518 1.777674 2.019111 7.760233 2.281481 10.597674 1.243407 7.851396-2.943111 14.586047-10.540444 18.175582-17.054074 2.94-5.578222 4.182093-10.3807406 1.618139-14.7269628-2.666511-4.6542222-8.090697-6.1942222-12.181628-5.8976296-7.395581.6274074-14.643023 6.0459259-21.035813 14.2592593-8.945349 11.7838521-14.266977 23.2482961-11.794187 32.8647411 1.709303 6.353926 7.304419 9.45674 12.728605 10.266666 13.104651 1.859408 19.941861-4.893778 33.821395-18.251852 4.455582-4.015407 2.484187-5.315851 1.253489-5.680888zm-29.05814-6.924297c1.207907-1.882222 9.355582-13.586222 14.620233-15.3885924 1.60355-.6311216 3.417125-.4079402 4.820232.5931852 1.572559 1.9164445.752093 4.2777778 0 5.8177782-2.609534 5.372888-7.976744 12.970222-14.813953 15.787851-1.631626.832262-3.5808.741205-5.127907-.239555-1.185116-.638815-1.971395-2.635111.501395-6.582074zm-117.987442 12.548148c2.76907-1.962074-6.472558 28.632593 11.475117 18.400149-.615349.342222.546976-.35363.923023-.775704s.535581-1.072296.558372-.935408c-4.26186-22.814814 17.332326-49.3712589 22.232326-55.9533329 1.789069-2.406963-4.55814-1.7111111-6.916977-.1825185-6.130698 3.9925925-9.116279 10.1754074-23.143954 26.3168884-9.116279 10.449186-13.332558 13.369482-23.406046 18.251852-1.504186.730074-4.045349.159704-2.575349-3.684592 1.959309-4.977353 4.410064-9.746479 7.315814-14.236445 5.891395-9.582222 12.193023-14.1565923 10.43814-16.472296-1.242093-1.6426667-9.845582 1.9278518-11.634652 3.2511111-1.789069 1.3232592-4.763255 7.5060739-6.039534 10.4834069-8.181861 18.924889-28.39721 50.477778 20.77372 15.514075z" fill="#008aab"></path></g></svg> 